<svg xmlns="http://www.w3.org/2000/svg" width="282" height="274" viewBox="0 0 282 274">
  <g id="Group_162" data-name="Group 162" transform="translate(-278.781 -775.241)">
    <g id="_Group_" data-name="&lt;Group&gt;" transform="translate(339.391 775.241)">
      <g id="_Group_2" data-name="&lt;Group&gt;" transform="translate(8.708)">
        <path id="_Path_" data-name="&lt;Path&gt;" d="M592.009,209.582H484a18.3,18.3,0,0,1-18.3-18.3V20.6A18.3,18.3,0,0,1,484,2.3H592.009a18.311,18.311,0,0,1,18.318,18.3V191.285A18.311,18.311,0,0,1,592.009,209.582Z" transform="translate(-465.355 -1.956)" fill="#fff"/>
        <path id="_Compound_Path_" data-name="&lt;Compound Path&gt;" d="M590.053,207.955H482.048A18.662,18.662,0,0,1,463.4,189.329V18.641A18.665,18.665,0,0,1,482.048,0H590.053A18.656,18.656,0,0,1,608.7,18.641V189.329A18.652,18.652,0,0,1,590.053,207.955ZM482.048.674a17.981,17.981,0,0,0-17.959,17.967V189.329a17.978,17.978,0,0,0,17.959,17.952H590.053a17.981,17.981,0,0,0,17.974-17.952V18.641A17.985,17.985,0,0,0,590.053.674Z" transform="translate(-463.4)" fill-rule="evenodd"/>
      </g>
      <g id="_Group_3" data-name="&lt;Group&gt;" transform="translate(29.841 0)">
        <path id="_Path_2" data-name="&lt;Path&gt;" d="M740.568,209.582H617.644A10.852,10.852,0,0,1,606.8,198.726V13.14A10.839,10.839,0,0,1,617.644,2.3H740.568a10.839,10.839,0,0,1,10.844,10.84V198.726A10.852,10.852,0,0,1,740.568,209.582Z" transform="translate(-606.456 -1.956)" fill="#fff"/>
        <path id="_Compound_Path_2" data-name="&lt;Compound Path&gt;" d="M738.612,207.955H615.689A11.2,11.2,0,0,1,604.5,196.771V11.185A11.2,11.2,0,0,1,615.689,0H738.612A11.2,11.2,0,0,1,749.8,11.185V196.771A11.2,11.2,0,0,1,738.612,207.955ZM615.689.674a10.526,10.526,0,0,0-10.515,10.511V196.771a10.526,10.526,0,0,0,10.515,10.511H738.612a10.526,10.526,0,0,0,10.515-10.511V11.185A10.526,10.526,0,0,0,738.612.674Z" transform="translate(-604.5 0)" fill-rule="evenodd"/>
      </g>
      <path id="_Path_3" data-name="&lt;Path&gt;" d="M791.121,232.988H678.831a5.934,5.934,0,0,1-5.931-5.929V89.729a5.944,5.944,0,0,1,5.931-5.929h112.29a5.934,5.934,0,0,1,5.931,5.929V227.058A5.924,5.924,0,0,1,791.121,232.988Z" transform="translate(-632.814 -71.253)" fill="#f4bc03"/>
      <path id="_Compound_Path_3" data-name="&lt;Compound Path&gt;" d="M990.054,1185.141h-36.4a5.273,5.273,0,0,1-5.257-5.255V1169.24a5.26,5.26,0,0,1,5.257-5.24h36.4a5.26,5.26,0,0,1,5.257,5.24v10.646A5.273,5.273,0,0,1,990.054,1185.141Zm-36.4-20.468a4.576,4.576,0,0,0-4.568,4.567v10.646a4.576,4.576,0,0,0,4.568,4.567h36.4a4.589,4.589,0,0,0,4.583-4.567V1169.24a4.589,4.589,0,0,0-4.583-4.567Z" transform="translate(-867.05 -989.718)" fill-rule="evenodd"/>
      <g id="_Group_4" data-name="&lt;Group&gt;" transform="translate(90.592 22.444)">
        <path id="_Path_4" data-name="&lt;Path&gt;" d="M1070.439,265.528h-54.984a3.045,3.045,0,0,1-3.055-3.039V155.239a3.045,3.045,0,0,1,3.055-3.039h54.984a3.055,3.055,0,0,1,3.056,3.039V262.489A3.055,3.055,0,0,1,1070.439,265.528Z" transform="translate(-1012.056 -151.856)" fill="#fff"/>
        <path id="_Compound_Path_4" data-name="&lt;Compound Path&gt;" d="M1068.484,263.917H1013.5a3.4,3.4,0,0,1-3.4-3.384V153.284a3.4,3.4,0,0,1,3.4-3.384h54.984a3.391,3.391,0,0,1,3.385,3.384V260.533A3.391,3.391,0,0,1,1068.484,263.917ZM1013.5,150.574a2.719,2.719,0,0,0-2.711,2.71V260.533a2.71,2.71,0,0,0,2.711,2.71h54.984a2.71,2.71,0,0,0,2.711-2.71V153.284a2.72,2.72,0,0,0-2.711-2.71Z" transform="translate(-1010.1 -149.9)" fill-rule="evenodd"/>
      </g>
      <path id="_Compound_Path_5" data-name="&lt;Compound Path&gt;" d="M1049.374,981.453h-25.642a2.54,2.54,0,0,1-2.531-2.545v-4.162a2.54,2.54,0,0,1,2.531-2.545h25.642a2.544,2.544,0,0,1,2.546,2.545v4.162A2.543,2.543,0,0,1,1049.374,981.453Zm-25.642-8.579a1.869,1.869,0,0,0-1.857,1.872v4.162a1.869,1.869,0,0,0,1.857,1.872h25.642a1.873,1.873,0,0,0,1.872-1.872v-4.162a1.873,1.873,0,0,0-1.872-1.872Z" transform="translate(-928.946 -826.636)" fill-rule="evenodd"/>
      <path id="_Path_5" data-name="&lt;Path&gt;" d="M1312.45,985.194h-10.41A3.055,3.055,0,0,1,1299,982.14v-2.485a3.055,3.055,0,0,1,3.041-3.055h10.41a3.058,3.058,0,0,1,3.055,3.055v2.485A3.058,3.058,0,0,1,1312.45,985.194Z" transform="translate(-1165.137 -830.377)" fill="#fff"/>
      <path id="_Compound_Path_6" data-name="&lt;Compound Path&gt;" d="M819.367,980.9a5.45,5.45,0,1,1,5.452-5.45A5.464,5.464,0,0,1,819.367,980.9Zm0-10.226a4.776,4.776,0,1,0,4.778,4.776A4.78,4.78,0,0,0,819.367,970.674Z" transform="translate(-752.695 -824.765)" fill-rule="evenodd"/>
      <path id="_Path_6" data-name="&lt;Path&gt;" d="M763.7,165.179H741.726a2.713,2.713,0,0,1-2.726-2.71V159.31a2.713,2.713,0,0,1,2.726-2.71H763.7a2.71,2.71,0,0,1,2.711,2.71v3.159A2.71,2.71,0,0,1,763.7,165.179Z" transform="translate(-689.013 -133.153)" fill="#fff"/>
      <path id="_Path_7" data-name="&lt;Path&gt;" d="M761.5,392.279H739.511a2.71,2.71,0,0,1-2.711-2.71V386.41a2.71,2.71,0,0,1,2.711-2.71H761.5a2.71,2.71,0,0,1,2.711,2.71v3.159A2.71,2.71,0,0,1,761.5,392.279Z" transform="translate(-687.143 -326.25)" fill="#fff"/>
      <path id="_Path_8" data-name="&lt;Path&gt;" d="M768.1,826.48H746.111a2.71,2.71,0,0,1-2.711-2.71V820.61a2.71,2.71,0,0,1,2.711-2.71H768.1a2.71,2.71,0,0,1,2.711,2.71v3.159A2.71,2.71,0,0,1,768.1,826.48Z" transform="translate(-692.754 -695.439)" fill="#fff"/>
      <path id="_Path_9" data-name="&lt;Path&gt;" d="M763.7,606.094H741.711A2.713,2.713,0,0,1,739,603.369v-3.144a2.723,2.723,0,0,1,2.711-2.725H763.7a2.723,2.723,0,0,1,2.711,2.725v3.144A2.713,2.713,0,0,1,763.7,606.094Z" transform="translate(-689.013 -508.038)" fill="#fff"/>
      <g id="_Group_5" data-name="&lt;Group&gt;" transform="translate(98.95 45.367)">
        <path id="_Compound_Path_7" data-name="&lt;Compound Path&gt;" d="M1075.621,324.111h-4.9v-15.6l-4.823,1.407V306.2l9.271-3.2h.449Z" transform="translate(-1065.9 -303)" fill="none" stroke="#000" stroke-width="0.5"/>
        <path id="_Compound_Path_8" data-name="&lt;Compound Path&gt;" d="M1190.521,324.111h-4.9v-15.6l-4.823,1.407V306.2l9.271-3.2h.449Z" transform="translate(-1163.59 -303)" fill="none" stroke="#000" stroke-width="0.5"/>
        <path id="_Compound_Path_9" data-name="&lt;Compound Path&gt;" d="M1287.9,313.8l1.288-10.8h12.342v3.788h-8.373l-.479,4.207a5.35,5.35,0,0,1,1.378-.539,6.837,6.837,0,0,1,6.5,1.632,8.44,8.44,0,0,1,.779,8.894,6.159,6.159,0,0,1-2.546,2.53,7.9,7.9,0,0,1-3.864.9,8.6,8.6,0,0,1-3.729-.823,6.744,6.744,0,0,1-2.741-2.246,5.552,5.552,0,0,1-.958-3.234h4.9a2.788,2.788,0,0,0,.734,1.842,2.363,2.363,0,0,0,1.767.689q2.457,0,2.456-3.653,0-3.369-3.01-3.369a3.05,3.05,0,0,0-2.561,1.093Z" transform="translate(-1254.308 -303)" fill="none" stroke="#000" stroke-width="0.5"/>
      </g>
      <g id="_Group_6" data-name="&lt;Group&gt;" transform="translate(114.796 77.738)">
        <path id="_Compound_Path_10" data-name="&lt;Compound Path&gt;" d="M1186.019,525.144a4.839,4.839,0,0,1-.764,2.71,5.655,5.655,0,0,1-2.1,1.886,6.029,6.029,0,0,1,2.4,2.021,5.238,5.238,0,0,1,.883,3.039,5.5,5.5,0,0,1-1.962,4.462,8.047,8.047,0,0,1-5.362,1.647,8.281,8.281,0,0,1-5.437-1.647,5.5,5.5,0,0,1-1.977-4.462,5.343,5.343,0,0,1,.869-3.01,5.886,5.886,0,0,1,2.457-2.051,5.622,5.622,0,0,1-2.112-1.886,4.837,4.837,0,0,1-.764-2.71,5.436,5.436,0,0,1,1.872-4.357,8.868,8.868,0,0,1,10.125,0A5.435,5.435,0,0,1,1186.019,525.144Zm-4.493,9.268a2.785,2.785,0,0,0-.674-2.006,2.335,2.335,0,0,0-1.767-.7,2.4,2.4,0,0,0-1.8.7,3.272,3.272,0,0,0,.015,4,2.369,2.369,0,0,0,1.812.734,2.294,2.294,0,0,0,1.752-.719A2.894,2.894,0,0,0,1181.526,534.412Zm-2.456-11.439a1.837,1.837,0,0,0-1.513.644,2.8,2.8,0,0,0-.51,1.782,2.94,2.94,0,0,0,.524,1.827,1.8,1.8,0,0,0,1.543.7,1.731,1.731,0,0,0,1.5-.7,3.068,3.068,0,0,0,.494-1.827,2.842,2.842,0,0,0-.509-1.782A1.855,1.855,0,0,0,1179.069,522.973Z" transform="translate(-1171.7 -519.2)" fill="none" stroke="#000" stroke-width="0.5" fill-rule="evenodd"/>
        <path id="_Compound_Path_11" data-name="&lt;Compound Path&gt;" d="M1301.338,532.072a10.053,10.053,0,0,1-1.932,6.6A6.622,6.622,0,0,1,1294,541a6.7,6.7,0,0,1-5.467-2.336,10.063,10.063,0,0,1-1.932-6.588v-3.863a10.026,10.026,0,0,1,1.932-6.588,7.513,7.513,0,0,1,10.874.015,10.064,10.064,0,0,1,1.932,6.588Zm-4.9-4.477a7.642,7.642,0,0,0-.584-3.4,2,2,0,0,0-1.887-1.123,1.942,1.942,0,0,0-1.842,1.048,7.091,7.091,0,0,0-.614,3.159v5.39a7.53,7.53,0,0,0,.6,3.459,2.152,2.152,0,0,0,3.73.03,7.344,7.344,0,0,0,.6-3.339Z" transform="translate(-1269.391 -519.285)" fill="none" stroke="#000" stroke-width="0.5" fill-rule="evenodd"/>
      </g>
      <g id="_Group_7" data-name="&lt;Group&gt;" transform="translate(121.222 114.511)">
        <path id="_Compound_Path_12" data-name="&lt;Compound Path&gt;" d="M1225.01,769.112a3.549,3.549,0,0,1-.554,1.976,3.976,3.976,0,0,1-1.528,1.363,4.425,4.425,0,0,1,1.737,1.482,3.763,3.763,0,0,1,.644,2.2,4.024,4.024,0,0,1-1.423,3.249,5.872,5.872,0,0,1-3.894,1.183,6.032,6.032,0,0,1-3.954-1.2,3.963,3.963,0,0,1-1.438-3.234,3.894,3.894,0,0,1,.629-2.186,4.322,4.322,0,0,1,1.8-1.5,3.947,3.947,0,0,1-1.543-1.363,3.548,3.548,0,0,1-.554-1.976,3.918,3.918,0,0,1,1.363-3.159,5.46,5.46,0,0,1,3.67-1.153,5.52,5.52,0,0,1,3.685,1.153A3.919,3.919,0,0,1,1225.01,769.112Zm-3.265,6.738a2.038,2.038,0,0,0-.479-1.452,1.708,1.708,0,0,0-1.3-.524,1.69,1.69,0,0,0-1.288.524,2,2,0,0,0-.494,1.452,2.065,2.065,0,0,0,.494,1.453,1.727,1.727,0,0,0,1.318.524,1.642,1.642,0,0,0,1.273-.524A2.072,2.072,0,0,0,1221.745,775.85Zm-1.782-8.31a1.322,1.322,0,0,0-1.093.464,2.023,2.023,0,0,0-.375,1.3,2.194,2.194,0,0,0,.375,1.333,1.32,1.32,0,0,0,1.123.494,1.287,1.287,0,0,0,1.093-.494,2.261,2.261,0,0,0,.36-1.333,2.064,2.064,0,0,0-.374-1.3A1.34,1.34,0,0,0,1219.962,767.54Z" transform="translate(-1214.6 -764.8)" fill="none" stroke="#000" stroke-width="0.5" fill-rule="evenodd"/>
        <path id="_Compound_Path_13" data-name="&lt;Compound Path&gt;" d="M1307.339,780.357h-10.724v-2.321l4.943-5.181q1.827-2.081,1.827-3.294a2.314,2.314,0,0,0-.434-1.512,1.695,1.695,0,0,0-2.576.18,2.814,2.814,0,0,0-.509,1.722H1296.3a5,5,0,0,1,.7-2.605,5.053,5.053,0,0,1,1.962-1.872,5.87,5.87,0,0,1,2.816-.674,5.72,5.72,0,0,1,3.819,1.138,4.115,4.115,0,0,1,1.348,3.309,4.94,4.94,0,0,1-.33,1.767,8.16,8.16,0,0,1-1.048,1.8,28.386,28.386,0,0,1-2.292,2.53l-1.992,2.276h6.051Z" transform="translate(-1284.063 -764.8)" fill="none" stroke="#000" stroke-width="0.5"/>
      </g>
      <path id="_Path_10" data-name="&lt;Path&gt;" d="M1066.99,781.593a.42.42,0,0,1-.419,0c-1.138-.629-6.4-3.8-6.2-7.951.225-4.387,4.988-3.623,6.156-1.467a.264.264,0,0,0,.224.12.211.211,0,0,0,.21-.15,3.375,3.375,0,0,1,4.194-1.722C1073.251,771.2,1075.378,776.382,1066.99,781.593Z" transform="translate(-962.244 -654.894)" fill="#fc6e51"/>
      <path id="_Path_11" data-name="&lt;Path&gt;" d="M457.333,1048.218a39,39,0,0,1-4.9-.315c-15.307-1.916-27.14-7.666-35.183-17.1-8.672-10.166-12.671-24.375-11.892-42.223.629-14.434,10.514-16.335,14.244-17.054.359-.075.689-.135.929-.195a.33.33,0,0,1,.4.24.346.346,0,0,1-.24.419c-.27.06-.584.12-.974.195-3.909.763-13.091,2.53-13.69,16.425-1.887,43.406,24.234,55.833,46.477,58.618,15.307,1.917,28.473-5.315,33.551-18.416,7.893-20.408,7.684-37.267,7.534-50.832-.165-13.64-.3-24.421,7.729-32.79,7.594-7.95,20.475-11.2,38.239-9.672a.346.346,0,0,1,.315.359.34.34,0,0,1-.374.314c-17.554-1.512-30.24,1.677-37.7,9.463-7.818,8.175-7.7,18.836-7.534,32.326.165,13.61.36,30.559-7.579,51.072-4.643,11.978-15.862,19.165-29.357,19.165Z" transform="translate(-405.264 -795.135)"/>
    </g>
    <g id="_Group_8" data-name="&lt;Group&gt;" transform="translate(380.686 850.129)">
      <path id="_Path_12" data-name="&lt;Path&gt;" d="M1555.238,511.835a7.464,7.464,0,0,1-3.8-2.71c-.869-1.333-1.527-3.549-.539-4.9.24-.329,1.138-4.222,4.973-4.058a32.462,32.462,0,0,1,8.867,1.662c7.923,3.713,8.927,11.454,15.382,15.033,8.283,4.6,12.312.674,15.906,4.627,5.842,6.393,3.61,23.956-7.878,31.113-7.774,4.836-19.921,4.971-25.432-1.093C1553.741,541.616,1561.948,514.575,1555.238,511.835Z" transform="translate(-1420.178 -500.166)" fill="#fc6e51"/>
      <g id="_Group_9" data-name="&lt;Group&gt;" transform="translate(102.708 57.47)">
        <g id="_Group_10" data-name="&lt;Group&gt;">
          <path id="_Path_13" data-name="&lt;Path&gt;" d="M1403.914,886.3h32.472a9.365,9.365,0,0,1,9.166,11.035l-8.522,48.317c-1.573,8.954-9.271,14.823-18.273,14.823l-49.757.494Z" transform="translate(-1368.655 -885.956)" fill="#fff"/>
          <path id="_Compound_Path_14" data-name="&lt;Compound Path&gt;" d="M1367.041,959.358a.321.321,0,0,1-.285-.165.325.325,0,0,1-.03-.329l34.928-74.669a.313.313,0,0,1,.3-.195h32.472a9.62,9.62,0,0,1,7.369,3.444,9.825,9.825,0,0,1,2.142,8l-8.522,48.317c-1.573,8.894-9.226,15.093-18.617,15.093l-49.757.509Zm35.138-74.684-34.614,73.995,49.233-.494c9.062,0,16.431-5.974,17.943-14.524l8.523-48.332a9.1,9.1,0,0,0-1.992-7.441,8.9,8.9,0,0,0-6.845-3.2Z" transform="translate(-1366.695 -884)" fill-rule="evenodd"/>
        </g>
        <g id="_Group_11" data-name="&lt;Group&gt;" transform="translate(29.687 74.085)">
          <path id="_Path_14" data-name="&lt;Path&gt;" d="M1567.2,1381.414l8.193-.314v59.666H1567.2Z" transform="translate(-1566.856 -1380.756)" fill="#fff"/>
          <path id="_Compound_Path_15" data-name="&lt;Compound Path&gt;" d="M1573.437,1439.155h-8.193a.348.348,0,0,1-.344-.344v-59.352a.356.356,0,0,1,.329-.344l8.193-.314a.353.353,0,0,1,.24.1.3.3,0,0,1,.1.24v59.666a.345.345,0,0,1-.329.344Zm-7.848-.689h7.5V1379.5l-7.5.285Z" transform="translate(-1564.9 -1378.8)" fill-rule="evenodd"/>
        </g>
        <g id="_Group_12" data-name="&lt;Group&gt;" transform="translate(4.045 123.779)">
          <path id="_Path_15" data-name="&lt;Path&gt;" d="M1405.137,1712.9H1444.5a9.146,9.146,0,0,1,9.136,9.148v1.258H1396v-1.258A9.146,9.146,0,0,1,1405.137,1712.9Z" transform="translate(-1395.656 -1712.57)" fill="#fff"/>
          <path id="_Compound_Path_16" data-name="&lt;Compound Path&gt;" d="M1451.68,1721.78h-57.635a.348.348,0,0,1-.345-.344v-1.258a9.491,9.491,0,0,1,9.481-9.478h39.362a9.491,9.491,0,0,1,9.481,9.478v1.258A.348.348,0,0,1,1451.68,1721.78Zm-57.306-.689h56.961v-.913a8.807,8.807,0,0,0-8.792-8.8h-39.362a8.82,8.82,0,0,0-8.807,8.8Z" transform="translate(-1393.7 -1710.7)" fill-rule="evenodd"/>
        </g>
        <path id="_Path_16" data-name="&lt;Path&gt;" d="M1788.3,1000.672h-.045a.337.337,0,0,1-.285-.389l4.134-23.462a.335.335,0,0,1,.659.12l-4.119,23.462A.339.339,0,0,1,1788.3,1000.672Z" transform="translate(-1724.872 -962.686)"/>
      </g>
      <g id="_Group_13" data-name="&lt;Group&gt;" transform="translate(30.424 93.884)">
        <g id="_Group_14" data-name="&lt;Group&gt;" transform="translate(21.408 74.36)">
          <path id="_Path_17" data-name="&lt;Path&gt;" d="M1041.313,1627.732l-2.771,15.542-9.241,1.542s4.014-18.372,3.939-18.716Z" transform="translate(-1028.96 -1625.762)" fill="#fff"/>
          <path id="_Compound_Path_17" data-name="&lt;Compound Path&gt;" d="M1027.366,1643.237a.3.3,0,0,1-.24-.1.287.287,0,0,1-.09-.3c1.557-7.127,3.879-17.937,3.924-18.641a.407.407,0,0,1,.09-.255.36.36,0,0,1,.314-.09l8.088,1.632a.338.338,0,0,1,.27.389l-2.786,15.542a.317.317,0,0,1-.285.269l-9.226,1.557Zm4.209-18.656c-.27,1.677-1.543,7.681-3.774,17.907l8.507-1.437,2.681-14.973Z" transform="translate(-1027.025 -1623.838)" fill-rule="evenodd"/>
        </g>
        <g id="_Group_15" data-name="&lt;Group&gt;" transform="translate(0 81.55)">
          <g id="_Group_16" data-name="&lt;Group&gt;">
            <path id="_Path_18" data-name="&lt;Path&gt;" d="M914.59,1678.968l1.108.06a2.525,2.525,0,0,1,2.412,2.246,18.319,18.319,0,0,1-.045,3.654,3.782,3.782,0,0,1-2.067,2.964c-9.975,5.031-20.4,5.106-26.556,3.683-3.744-.884-3.789-4.058-1.543-5.884,6.321-5.21,16.116-9.7,19.7-11.26a3.808,3.808,0,0,1,4.224.689,4.071,4.071,0,0,1,1.123,2.351A1.731,1.731,0,0,0,914.59,1678.968Z" transform="translate(-886.041 -1673.75)" fill="#fff"/>
            <path id="_Compound_Path_18" data-name="&lt;Compound Path&gt;" d="M895.117,1690.818a35.128,35.128,0,0,1-7.7-.809c-1.782-.419-2.936-1.378-3.25-2.7a3.9,3.9,0,0,1,1.558-3.788c6.306-5.18,15.937-9.627,19.786-11.3a4.19,4.19,0,0,1,4.6.764,4.337,4.337,0,0,1,1.213,2.531,1.435,1.435,0,0,0,1.333,1.227l1.123.045a2.861,2.861,0,0,1,2.711,2.561,17.392,17.392,0,0,1-.045,3.728,4.059,4.059,0,0,1-2.247,3.219A42.709,42.709,0,0,1,895.117,1690.818Zm12.147-18.282a3.7,3.7,0,0,0-1.483.3c-3.819,1.677-13.375,6.094-19.621,11.214a3.2,3.2,0,0,0-1.318,3.114c.24,1.048,1.213,1.827,2.726,2.186,6.321,1.468,16.536,1.273,26.331-3.653a3.434,3.434,0,0,0,1.872-2.7,16.017,16.017,0,0,0,.045-3.579,2.162,2.162,0,0,0-2.082-1.946l-1.123-.06a2.078,2.078,0,0,1-1.947-1.8,3.648,3.648,0,0,0-1.018-2.156A3.376,3.376,0,0,0,907.264,1672.536Z" transform="translate(-884.092 -1671.856)" fill-rule="evenodd"/>
          </g>
          <path id="_Path_19" data-name="&lt;Path&gt;" d="M909.049,1752.8c-5.722,0-7.789-1.9-7.923-2.036a.334.334,0,0,1,0-.479.349.349,0,0,1,.479-.015c.06.06,5.841,5.24,25.357-2.216a.339.339,0,1,1,.255.629C918.935,1751.853,913.079,1752.8,909.049,1752.8Z" transform="translate(-898.489 -1736.619)"/>
          <path id="_Path_20" data-name="&lt;Path&gt;" d="M965,1714.948a.344.344,0,0,1-.3-.195l-2.082-4.222a.342.342,0,0,1,.614-.3l2.082,4.223a.333.333,0,0,1-.165.449A.242.242,0,0,1,965,1714.948Z" transform="translate(-950.832 -1704.326)"/>
          <path id="_Path_21" data-name="&lt;Path&gt;" d="M985.492,1701.252a.344.344,0,0,1-.3-.195l-2.471-4.926a.342.342,0,0,1,.614-.3l2.456,4.926a.327.327,0,0,1-.15.449A.286.286,0,0,1,985.492,1701.252Z" transform="translate(-967.922 -1692.082)"/>
        </g>
        <g id="_Group_17" data-name="&lt;Group&gt;" transform="translate(59.617 74.307)">
          <path id="_Path_22" data-name="&lt;Path&gt;" d="M1299.857,1627.208l.614,14.014-16.071,2.171s6.785-5.615,6.111-11.663a40.137,40.137,0,0,0-.974-5.929Z" transform="translate(-1284.059 -1625.454)" fill="#fff"/>
          <path id="_Compound_Path_19" data-name="&lt;Compound Path&gt;" d="M1282.465,1641.769a.339.339,0,0,1-.315-.209.328.328,0,0,1,.105-.39c.06-.06,6.635-5.57,5.991-11.379a41.21,41.21,0,0,0-.958-5.839.332.332,0,0,1,.06-.329.322.322,0,0,1,.3-.135l10.32,1.422a.311.311,0,0,1,.285.314l.614,14.03a.338.338,0,0,1-.285.344l-16.071,2.171Zm5.587-17.533a51.648,51.648,0,0,1,.869,5.48c.539,4.941-3.595,9.493-5.422,11.23l14.679-1.976-.584-13.43Z" transform="translate(-1282.124 -1623.485)" fill-rule="evenodd"/>
        </g>
        <g id="_Group_18" data-name="&lt;Group&gt;" transform="translate(46.235 82.409)">
          <g id="_Group_19" data-name="&lt;Group&gt;">
            <path id="_Path_23" data-name="&lt;Path&gt;" d="M1222.43,1682.418h1.109a2.543,2.543,0,0,1,2.531,2.126,45.822,45.822,0,0,1,.21,5.809,3.758,3.758,0,0,1-1.872,3.084c-9.616,5.555-19.981,6.169-26.181,5.046-3.789-.674-4.014-3.863-1.9-5.809,5.991-5.54,15.457-10.556,18.917-12.308a3.4,3.4,0,0,1,4,.314c.779.689.554,2.141,1.5,2.456C1221.532,1683.391,1221.592,1682.418,1222.43,1682.418Z" transform="translate(-1194.658 -1679.528)" fill="#fff"/>
            <path id="_Compound_Path_20" data-name="&lt;Compound Path&gt;" d="M1201.98,1697.363a32.413,32.413,0,0,1-5.692-.464c-1.8-.329-3.011-1.228-3.385-2.545a3.879,3.879,0,0,1,1.318-3.863c5.962-5.51,15.263-10.481,18.992-12.353a3.7,3.7,0,0,1,4.374.359,2.9,2.9,0,0,1,.734,1.363c.18.554.315.913.644,1.018.225.075.3.015.524-.209a1.423,1.423,0,0,1,1.063-.524h1.123a2.869,2.869,0,0,1,2.846,2.411,44.589,44.589,0,0,1,.225,5.884,4.054,4.054,0,0,1-2.052,3.354A41.929,41.929,0,0,1,1201.98,1697.363Zm13.285-19.075a4.006,4.006,0,0,0-1.752.449c-3.7,1.871-12.941,6.8-18.827,12.248a3.24,3.24,0,0,0-1.138,3.189,3.281,3.281,0,0,0,2.861,2.051c6.365,1.153,16.52.434,25.957-5.016a3.439,3.439,0,0,0,1.707-2.8,47.493,47.493,0,0,0-.21-5.734,2.206,2.206,0,0,0-2.187-1.857h-1.123c-.24,0-.374.12-.584.329a1.092,1.092,0,0,1-1.213.374c-.689-.224-.9-.883-1.078-1.452a2.376,2.376,0,0,0-.539-1.063A2.768,2.768,0,0,0,1215.265,1678.288Z" transform="translate(-1192.781 -1677.599)" fill-rule="evenodd"/>
          </g>
          <path id="_Path_24" data-name="&lt;Path&gt;" d="M1216.094,1758.34c-4.763,0-6.62-1.542-6.755-1.662a.334.334,0,0,1-.03-.479.348.348,0,0,1,.479-.03c.06.06,6.126,4.956,25.088-3.533a.346.346,0,0,1,.449.165.341.341,0,0,1-.165.449C1226.249,1757.247,1220.138,1758.34,1216.094,1758.34Z" transform="translate(-1206.76 -1741.376)"/>
          <path id="_Path_25" data-name="&lt;Path&gt;" d="M1269.982,1725.024a.33.33,0,0,1-.3-.18l-2.322-4.117a.352.352,0,0,1,.12-.464.344.344,0,0,1,.464.135l2.322,4.118a.326.326,0,0,1-.12.464A.312.312,0,0,1,1269.982,1725.024Z" transform="translate(-1256.154 -1713.84)"/>
          <path id="_Path_26" data-name="&lt;Path&gt;" d="M1290.21,1713.168a.322.322,0,0,1-.285-.165l-2.621-4.3a.333.333,0,0,1,.12-.464.346.346,0,0,1,.464.12l2.606,4.3a.34.34,0,0,1-.1.464A.4.4,0,0,1,1290.21,1713.168Z" transform="translate(-1273.102 -1703.615)"/>
        </g>
        <path id="_Path_27" data-name="&lt;Path&gt;" d="M1126.65,1147.488s-40.156,10.136-45.308,10.136c-5.167,0-26.017,52.883-26.017,52.883l-13.824-3.878s14.319-64.443,22.661-72.183c6.141-5.719,61.44-7.247,61.44-7.247Z" transform="translate(-1017.924 -1127.2)" fill="#e0ae09"/>
        <path id="_Path_28" data-name="&lt;Path&gt;" d="M1261.607,1141.9s.239,18.147-5.662,22.115c-5.9,3.983-41.279,7.247-39.8,6.753s3.8,35.65,3.8,49.545l-13.39.509s-21.358-55.878-19.052-62.122c4.119-11.17,35.153-14.928,45.293-16.425C1234.9,1141.96,1261.607,1141.9,1261.607,1141.9Z" transform="translate(-1141.917 -1139.699)" fill="#f4bc03"/>
        <path id="_Path_29" data-name="&lt;Path&gt;" d="M1191.795,1231.687a.353.353,0,0,1-.314-.24q-.734-2.261-1.438-4.432c-3.939-12.188-7.055-21.815-5.632-26.1,1.213-3.668,5.5-6.782,12.746-9.223a.34.34,0,0,1,.434.21.332.332,0,0,1-.225.419c-7.025,2.381-11.173,5.346-12.327,8.8-1.348,4.072,1.9,14.089,5.646,25.678.479,1.453.959,2.934,1.438,4.432a.347.347,0,0,1-.225.434A.33.33,0,0,1,1191.795,1231.687Z" transform="translate(-1139.131 -1182.023)" fill="#fff"/>
      </g>
      <g id="_Group_20" data-name="&lt;Group&gt;" transform="translate(104.931 28.292)">
        <path id="_Path_30" data-name="&lt;Path&gt;" d="M1437.121,759.205c1.363,17.862-10.17,23.567-11.473,22.414-27.065-24-36.2-18.911-41.848-24.3l16.94-62.706c18.408-7.816,30.54.165,30.54.165Z" transform="translate(-1383.461 -690.873)" fill="#fff"/>
        <path id="_Compound_Path_21" data-name="&lt;Compound Path&gt;" d="M1424.235,780.346a1.076,1.076,0,0,1-.734-.225c-18.213-16.141-28.069-19.03-34.6-20.932-3.115-.913-5.362-1.557-7.25-3.369a.346.346,0,0,1-.1-.329l16.94-62.706a.329.329,0,0,1,.195-.224c18.363-7.8,30.735.09,30.855.18a.35.35,0,0,1,.15.255l5.841,64.427c1.273,16.59-8.208,21.8-9.3,22.339A4.738,4.738,0,0,1,1424.235,780.346Zm-41.968-24.885c1.752,1.6,3.894,2.216,6.815,3.084,6.59,1.917,16.551,4.821,34.869,21.067.12.1.779.135,1.977-.464,3.79-1.872,9.931-8.549,8.927-21.666l-5.827-64.263c-1.378-.824-13.016-7.217-29.926-.1Z" transform="translate(-1381.538 -689.121)" fill-rule="evenodd"/>
      </g>
      <g id="_Group_21" data-name="&lt;Group&gt;" transform="translate(127.492 6.542)">
        <g id="_Group_22" data-name="&lt;Group&gt;">
          <path id="_Path_31" data-name="&lt;Path&gt;" d="M1534.765,554.617a.906.906,0,0,1-.135-1.318c2.2-2.426,4.658-7.307,4.673-7.127.165,2.021,3.25,1.363,6.26,2.92a2.8,2.8,0,0,1,1.648,3.324.391.391,0,0,0,.554.434c.809-.419,1.858-.569,2.322,1.123.524,1.9-2.067,4.117-3.684,4.417.09.449,1.138,4.956,2.411,10.137.254,1.033,2.891,1.946,2.891,1.946-8.657,3.743-12.881,2.2-14.079-.06l-.285-.539a.993.993,0,0,1,.6-1.407l1.378-.419a2.782,2.782,0,0,0,1.677-2.7l-.06-3.968a9.384,9.384,0,0,1-2.172.584,2.568,2.568,0,0,1-2.786-1.887,9.484,9.484,0,0,1-.314-4.776Z" transform="translate(-1534.071 -545.823)" fill="#fff"/>
          <path id="_Compound_Path_22" data-name="&lt;Compound Path&gt;" d="M1540.859,571.118c-2.92,0-4.673-1.078-5.437-2.515l-.285-.524a1.346,1.346,0,0,1,.794-1.9l1.378-.419a2.5,2.5,0,0,0,1.453-2.381l-.06-3.474a7.99,7.99,0,0,1-1.8.449,2.95,2.95,0,0,1-3.161-2.141,9.983,9.983,0,0,1-.359-4.716l-.734-.569a1.247,1.247,0,0,1-.479-.883,1.2,1.2,0,0,1,.315-.928,40.171,40.171,0,0,0,4.1-6.214c.614-1.078.614-1.078.869-1.018a.334.334,0,0,1,.27.314c.075.9.929,1.123,2.531,1.482a13.814,13.814,0,0,1,3.55,1.138,3.164,3.164,0,0,1,1.827,3.713.033.033,0,0,0,.015.045c.03.03.045.015.06.015a1.931,1.931,0,0,1,1.707-.195,2.137,2.137,0,0,1,1.094,1.527,2.836,2.836,0,0,1-.464,2.276,6.265,6.265,0,0,1-3.145,2.486c.27,1.183,1.2,5.181,2.337,9.807.15.584,1.647,1.348,2.666,1.707a.319.319,0,0,1,.225.3.355.355,0,0,1-.195.329A23.733,23.733,0,0,1,1540.859,571.118Zm-1.827-12.038a.279.279,0,0,1,.18.06.308.308,0,0,1,.15.284l.075,3.968a3.108,3.108,0,0,1-1.9,3.009l-1.408.434a.626.626,0,0,0-.4.374.606.606,0,0,0,.03.554l.27.524c1.109,2.126,5.152,3.4,12.881.24-.869-.389-2.112-1.063-2.307-1.872-1.3-5.255-2.337-9.717-2.427-10.152a.416.416,0,0,1,.045-.269.356.356,0,0,1,.225-.135,5.4,5.4,0,0,0,3.041-2.261,2.248,2.248,0,0,0,.374-1.737,1.564,1.564,0,0,0-.719-1.093,1.315,1.315,0,0,0-1.108.18.735.735,0,0,1-1.049-.809,2.468,2.468,0,0,0-1.483-2.95,12.677,12.677,0,0,0-3.385-1.093c-1.243-.269-2.336-.509-2.816-1.318q-.06.1-.12.225a40.239,40.239,0,0,1-4.194,6.318.549.549,0,0,0-.135.419.531.531,0,0,0,.225.4l.9.7a.315.315,0,0,1,.12.329,9.127,9.127,0,0,0,.315,4.6,2.237,2.237,0,0,0,2.426,1.662,8.5,8.5,0,0,0,2.082-.569A.266.266,0,0,1,1539.031,559.08Z" transform="translate(-1532.166 -543.862)" fill-rule="evenodd"/>
        </g>
        <g id="_Group_23" data-name="&lt;Group&gt;" transform="translate(6.521 14.755)">
          <path id="_Path_32" data-name="&lt;Path&gt;" d="M1579,644.7l-1,.464Z" transform="translate(-1577.656 -644.357)" fill="#fff"/>
          <path id="_Path_33" data-name="&lt;Path&gt;" d="M1576.05,643.559a.349.349,0,0,1-.315-.195.341.341,0,0,1,.165-.449l1-.479a.335.335,0,0,1,.449.18.326.326,0,0,1-.165.449l-1,.464A.3.3,0,0,1,1576.05,643.559Z" transform="translate(-1575.706 -642.408)"/>
        </g>
      </g>
      <g id="_Group_24" data-name="&lt;Group&gt;" transform="translate(0 90.53)">
        <g id="_Group_25" data-name="&lt;Group&gt;">
          <path id="_Path_34" data-name="&lt;Path&gt;" d="M839.9,1111.3l-10.44,101.35h-7.4l6.351-92.336a4.074,4.074,0,0,0-3.819-4.552H697.037a2.742,2.742,0,0,0-2.561,3.054l6.426,93.25h-7.414l-10.26-99.359c-.315-3.039,1.842-5.7,4.613-5.7H836.421A3.732,3.732,0,0,1,839.9,1111.3Z" transform="translate(-682.863 -1106.671)" fill="#fff"/>
          <path id="_Compound_Path_23" data-name="&lt;Compound Path&gt;" d="M827.562,1211.121h-7.4a.369.369,0,0,1-.255-.12.352.352,0,0,1-.09-.255l6.365-92.321a4.218,4.218,0,0,0-1.063-3.114,3.369,3.369,0,0,0-2.426-1.078H695.142a2.081,2.081,0,0,0-1.543.689,2.636,2.636,0,0,0-.674,1.991l6.411,93.25a.262.262,0,0,1-.09.255.312.312,0,0,1-.24.12h-7.414a.34.34,0,0,1-.33-.314L681,1110.864a5.72,5.72,0,0,1,1.408-4.447,4.678,4.678,0,0,1,3.535-1.617H834.527a3.616,3.616,0,0,1,2.726,1.243,4.454,4.454,0,0,1,1.093,3.414l-10.44,101.35A.343.343,0,0,1,827.562,1211.121Zm-7.04-.689h6.74l10.41-101.036a3.788,3.788,0,0,0-.914-2.9,3,3,0,0,0-2.232-1.018H685.946a4.062,4.062,0,0,0-3.041,1.393,5.094,5.094,0,0,0-1.228,3.923l10.23,99.059h6.74l-6.4-92.891a3.286,3.286,0,0,1,.854-2.5,2.785,2.785,0,0,1,2.037-.9H822.694a3.95,3.95,0,0,1,2.921,1.3,4.81,4.81,0,0,1,1.243,3.608Z" transform="translate(-680.968 -1104.8)" fill-rule="evenodd"/>
        </g>
      </g>
      <g id="_Group_26" data-name="&lt;Group&gt;" transform="translate(40.302 29.617)">
        <g id="_Group_27" data-name="&lt;Group&gt;" transform="translate(0 53.524)">
          <path id="_Path_35" data-name="&lt;Path&gt;" d="M982.247,1065.067a43.884,43.884,0,0,0-11.548,1.587c-6.486.524-11.413,1.018-13.765.389-4.6-.569-5.347-1.961-4.119-3.4l6.65-1.273a28.833,28.833,0,0,1,2.891-1.722c-2.142-.749-3.924.374-4.643-1.288a25.742,25.742,0,0,1,6.261-1.662,24.772,24.772,0,0,1,3.7,1.2h.015l4.119,1.482a4.812,4.812,0,0,0,3.175.045l3.715-1.213Z" transform="translate(-951.954 -1057.363)" fill="#fff"/>
          <path id="_Compound_Path_24" data-name="&lt;Compound Path&gt;" d="M958.218,1065.759a13.09,13.09,0,0,1-3.265-.3c-2.831-.36-4.4-1.033-4.808-2.066a1.8,1.8,0,0,1,.509-1.887.234.234,0,0,1,.195-.1l6.575-1.258c.659-.434,1.333-.868,2.1-1.288a8,8,0,0,0-1.438-.075c-1.063,0-2.067,0-2.576-1.2a.3.3,0,0,1-.015-.255.327.327,0,0,1,.195-.18,24.777,24.777,0,0,1,6.321-1.692.3.3,0,0,1,.135,0,28.013,28.013,0,0,1,3.714,1.2h.045l4.119,1.5a4.53,4.53,0,0,0,2.951.045l3.7-1.228a.364.364,0,0,1,.4.149l3.564,5.854a.352.352,0,0,1,0,.344.321.321,0,0,1-.284.164,44.276,44.276,0,0,0-11.473,1.573.133.133,0,0,1-.06.015l-1.618.135C963.535,1065.519,960.51,1065.759,958.218,1065.759Zm-7.13-3.728a1.184,1.184,0,0,0-.314,1.123c.165.434.944,1.228,4.284,1.647h.045c2.112.554,6.486.194,12.042-.27l1.588-.135a44.186,44.186,0,0,1,11.024-1.572l-3.115-5.12-3.46,1.138a5.191,5.191,0,0,1-3.4-.06l-4.059-1.467a.287.287,0,0,1-.09-.015,22.313,22.313,0,0,0-3.58-1.153,25.12,25.12,0,0,0-5.766,1.482c.344.449.869.479,1.8.464a7.428,7.428,0,0,1,2.486.314.365.365,0,0,1,.225.3.333.333,0,0,1-.18.329,28.048,28.048,0,0,0-2.846,1.692l-.03.015a.2.2,0,0,1-.12.045Z" transform="translate(-950.047 -1055.45)" fill-rule="evenodd"/>
        </g>
        <path id="_Path_36" data-name="&lt;Path&gt;" d="M1171.64,700.2s-9.256,36.893-15.592,45.682a20.015,20.015,0,0,1-3.205,3.474l-3.235,7.307a6.6,6.6,0,0,1-5.572,3.923l-33.146,2.006-3.49-7.756,25.717-9.882,3.415-7.352c3.49-10.167,11.009-21.052,16.416-27.37C1160.107,701.877,1171.64,700.2,1171.64,700.2Z" transform="translate(-1083.832 -699.867)" fill="#fff"/>
        <path id="_Path_37" data-name="&lt;Path&gt;" d="M1108.986,761.041a.349.349,0,0,1-.314-.195l-3.475-7.756a.337.337,0,0,1-.015-.27.409.409,0,0,1,.194-.195l25.6-9.837,3.34-7.2c3.475-10.121,11.039-21.126,16.476-27.475,7.16-8.355,18.782-10.121,18.9-10.136a.34.34,0,1,1,.09.674c-.1.015-11.488,1.752-18.483,9.912-5.392,6.3-12.911,17.219-16.341,27.25a.118.118,0,0,0-.015.045l-3.415,7.351a.354.354,0,0,1-.195.165l-25.373,9.762,3.235,7.217,32.907-2.006a6.235,6.235,0,0,0,5.287-3.713l3.25-7.307a.323.323,0,0,1,.434-.18.34.34,0,0,1,.18.449l-3.235,7.307a6.928,6.928,0,0,1-5.871,4.117L1109,761.041h-.015Z" transform="translate(-1081.928 -697.972)"/>
      </g>
      <g id="_Group_28" data-name="&lt;Group&gt;" transform="translate(87.751 31.189)">
        <path id="_Path_38" data-name="&lt;Path&gt;" d="M1527.5,762.62a24,24,0,0,0,6.845-4.821c10.934-11.2,5.3-38.794,5.3-38.794l11.069-8.205c27.634,4.327,17.075,43.66.689,57.974-5.707,4.986-14.708,7.067-20.849,7.711C1533.252,769.418,1530.122,764.926,1527.5,762.62Z" transform="translate(-1488.459 -710.452)" fill="#fff"/>
        <path id="_Path_39" data-name="&lt;Path&gt;" d="M1528.664,774.85a.364.364,0,0,1-.269-.135.328.328,0,0,1-.045-.329c2.561-6.723-.195-11.05-2.966-13.49a.329.329,0,0,1-.1-.3.344.344,0,0,1,.18-.27,23.608,23.608,0,0,0,6.755-4.746c5.527-5.66,6.665-15.691,6.65-23.118a.336.336,0,0,1,.345-.329h0a.332.332,0,0,1,.329.329c.03,10.99-2.277,18.925-6.845,23.6a24.075,24.075,0,0,1-6.486,4.656c2.307,2.2,5.317,6.6,2.966,13.4,4.374-.509,13.959-2.2,20.115-7.576,10.544-9.223,19.307-30.05,15.233-44.154-2.142-7.381-7.579-11.963-15.742-13.236a.338.338,0,0,1-.285-.389.35.35,0,0,1,.39-.284c8.432,1.333,14.064,6.064,16.281,13.715,1.917,6.648,1.2,15.212-2.022,24.106-3.056,8.415-7.938,15.976-13.406,20.752-6.575,5.735-16.91,7.367-21.044,7.8Z" transform="translate(-1486.567 -708.472)"/>
        <g id="_Group_29" data-name="&lt;Group&gt;" transform="translate(0 47.791)">
          <path id="_Path_40" data-name="&lt;Path&gt;" d="M1270.1,1034.047l-1-4.147,9.931,4.642-3.475-2.845a8.78,8.78,0,0,1,3.76.7c1.827.823,5.093,4.282,5.3,4.492,3.355.434,14.139,1.347,23.186-2.95,2.621,2.306,5.991,6.139,3.3,13.206-14.6,1.542-28.129-5.106-28.129-5.106C1275.81,1041.579,1270.1,1034.047,1270.1,1034.047Z" transform="translate(-1268.762 -1029.565)" fill="#fff"/>
          <path id="_Compound_Path_25" data-name="&lt;Compound Path&gt;" d="M1304.742,1045.813a60.928,60.928,0,0,1-23.785-5.345c-7.2-.509-12.806-7.816-13.046-8.13l-.06-.12-1-4.132a.351.351,0,0,1,.1-.344.32.32,0,0,1,.359-.045l7.489,3.489-1.393-1.123a.351.351,0,0,1-.1-.374.356.356,0,0,1,.3-.24,9.081,9.081,0,0,1,3.924.734c1.767.794,4.7,3.833,5.332,4.492,3.265.4,13.974,1.288,22.871-2.95a.346.346,0,0,1,.374.06c2.981,2.635,6.051,6.558,3.385,13.58a.364.364,0,0,1-.285.224c-1.5.15-3,.225-4.464.225Zm-36.247-13.835c.539.674,5.961,7.4,12.566,7.816a.3.3,0,0,1,.135.03c.135.075,13.48,6.528,27.724,5.105,2.352-6.378-.359-10.032-3.1-12.487-9.137,4.252-20.041,3.294-23.171,2.889a.4.4,0,0,1-.21-.1c-.135-.15-3.415-3.624-5.182-4.417a8.509,8.509,0,0,0-2.651-.658l2.711,2.231a.328.328,0,0,1,.075.434.352.352,0,0,1-.434.135l-9.286-4.342Z" transform="translate(-1266.838 -1027.66)" fill-rule="evenodd"/>
        </g>
      </g>
      <path id="_Path_41" data-name="&lt;Path&gt;" d="M1300.29,829.5c.958,2.216,13.046,5.525,11.563,7.2-1.273,1.422-5.392,24.84-5.392,24.84-10.155-3.953-17.9-7.95-17.09-12.188A185.281,185.281,0,0,1,1300.29,829.5Z" transform="translate(-1198.195 -780.19)" fill="#fc6e51"/>
    </g>
    <g id="_Group_30" data-name="&lt;Group&gt;" transform="translate(278.781 812.147)">
      <g id="_Group_31" data-name="&lt;Group&gt;" transform="translate(4.664 144.469)">
        <path id="_Path_42" data-name="&lt;Path&gt;" d="M61.062,1217.69s-4.119,4.9-16.311,5.27c-10.709.33-10.874-2.725-10.754-4.327.135-1.677,1.3-3.863,10.589-4.9C54.966,1212.585,61.062,1217.69,61.062,1217.69Z" transform="translate(-33.644 -1213.239)" fill="#fff"/>
        <path id="_Compound_Path_26" data-name="&lt;Compound Path&gt;" d="M41.277,1221.452c-4.523,0-7.369-.674-8.687-2.051a3.13,3.13,0,0,1-.824-2.65c.15-2.006,1.558-4.177,10.874-5.211,10.41-1.153,16.67,3.968,16.73,4.028a.285.285,0,0,1,.12.225.323.323,0,0,1-.075.255c-.18.195-4.359,5.016-16.551,5.39Q42.04,1221.452,41.277,1221.452Zm4.4-9.4a25.668,25.668,0,0,0-2.966.164c-8.882.988-10.155,2.965-10.275,4.582a2.526,2.526,0,0,0,.644,2.141c1.3,1.363,4.583,1.976,9.751,1.812,10.29-.314,14.753-3.893,15.8-4.881A22.511,22.511,0,0,0,45.68,1212.05Z" transform="translate(-31.742 -1211.371)" fill-rule="evenodd"/>
      </g>
      <g id="_Group_32" data-name="&lt;Group&gt;" transform="translate(9.811 115.306)">
        <path id="_Path_43" data-name="&lt;Path&gt;" d="M84.113,1800.773a23.482,23.482,0,0,1-5.212-.554.338.338,0,1,1,.15-.659,29.281,29.281,0,0,0,12.626-.419.342.342,0,1,1,.18.659A31.556,31.556,0,0,1,84.113,1800.773Z" transform="translate(-76.76 -1681.965)"/>
        <g id="_Group_33" data-name="&lt;Group&gt;" transform="translate(6.106 93.639)">
          <path id="_Path_44" data-name="&lt;Path&gt;" d="M116.334,1644.3v10.96l-6.261-.734-.974-9.238Z" transform="translate(-108.766 -1643.956)" fill="#fff"/>
          <path id="_Compound_Path_27" data-name="&lt;Compound Path&gt;" d="M114.44,1653.649H114.4l-6.261-.734a.385.385,0,0,1-.3-.3l-.959-9.253a.335.335,0,0,1,.285-.374L114.4,1642a.378.378,0,0,1,.255.09.32.32,0,0,1,.12.254v10.96a.332.332,0,0,1-.33.344Zm-5.946-1.377,5.6.659v-10.2l-6.515.884Z" transform="translate(-106.872 -1642)" fill-rule="evenodd"/>
        </g>
        <g id="_Group_34" data-name="&lt;Group&gt;" transform="translate(0 99.617)">
          <path id="_Path_45" data-name="&lt;Path&gt;" d="M82.655,1705.309a43.424,43.424,0,0,1-11.877,0,2.788,2.788,0,0,1-2.352-3.429c1.108-4.492,3.011-13.011,6.276-16.949l.809,2.126,1.123-2.007a1,1,0,0,1,.734-.509l2.456-.3a.985.985,0,0,1,1.108.779l.389,1.857,1.228-2.441,1.048,9.418q.3,2.815.869,5.585l.569,2.74C85.411,1704.186,84.182,1705.1,82.655,1705.309Z" transform="translate(-68.007 -1683.887)" fill="#fff"/>
          <path id="_Compound_Path_28" data-name="&lt;Compound Path&gt;" d="M74.852,1704.1a43.86,43.86,0,0,1-6.021-.4,3.2,3.2,0,0,1-2.187-1.362,3.136,3.136,0,0,1-.449-2.5l.24-.958c1.123-4.642,3.011-12.383,6.1-16.126a.4.4,0,0,1,.33-.12.364.364,0,0,1,.255.21l.554,1.468.764-1.377a1.32,1.32,0,0,1,1-.674l2.456-.314a1.345,1.345,0,0,1,1.468,1.048l.195.913.779-1.572a.352.352,0,0,1,.374-.18.3.3,0,0,1,.27.284l1.048,9.433c.21,1.857.494,3.713.869,5.555l.569,2.74a2.862,2.862,0,0,1-.4,2.321,3.229,3.229,0,0,1-2.247,1.213,44.355,44.355,0,0,1-5.961.4Zm-2.157-20.452c-2.786,3.773-4.538,10.99-5.6,15.377l-.24.973a2.449,2.449,0,0,0,.345,1.961,2.541,2.541,0,0,0,1.722,1.063,43.458,43.458,0,0,0,11.788,0,2.647,2.647,0,0,0,1.812-.928,2.283,2.283,0,0,0,.27-1.8l-.554-2.74c-.374-1.857-.674-3.743-.884-5.615l-.914-8.295-.719,1.422a.355.355,0,0,1-.344.18.318.318,0,0,1-.285-.27l-.4-1.857a.639.639,0,0,0-.719-.509l-2.456.315a.651.651,0,0,0-.479.329l-1.123,2.006a.333.333,0,0,1-.33.18.338.338,0,0,1-.285-.225Zm8.058,19.719h0Z" transform="translate(-66.105 -1681.926)" fill-rule="evenodd"/>
        </g>
        <path id="_Path_46" data-name="&lt;Path&gt;" d="M103.644,1759.268a.356.356,0,0,1-.344-.329.346.346,0,0,1,.329-.345l5.871-.194a.337.337,0,1,1,.015.674l-5.856.194Z" transform="translate(-97.729 -1647.333)"/>
        <path id="_Path_47" data-name="&lt;Path&gt;" d="M89.106,1797.5h-.03c-2.786-.27-2.876-1.692-2.876-1.752a.336.336,0,0,1,.33-.345.346.346,0,0,1,.359.314c0,.03.135.9,2.232,1.093l5.841-.18c.03,0,2.2,0,2.411-1.288a.339.339,0,0,1,.389-.27.335.335,0,0,1,.285.375c-.3,1.857-2.981,1.857-3.085,1.857l-5.841.194Z" transform="translate(-83.19 -1678.512)"/>
        <g id="_Group_35" data-name="&lt;Group&gt;" transform="translate(35.403 89.701)">
          <path id="_Path_48" data-name="&lt;Path&gt;" d="M313.522,1618l-.359,13.49h-7.519L304.7,1618Z" transform="translate(-304.367 -1617.656)" fill="#fff"/>
          <path id="_Compound_Path_29" data-name="&lt;Compound Path&gt;" d="M311.271,1629.879h-7.519a.355.355,0,0,1-.344-.314l-.929-13.505a.287.287,0,0,1,.09-.255.354.354,0,0,1,.24-.1h8.822a.354.354,0,0,1,.24.1.339.339,0,0,1,.09.239l-.344,13.505A.336.336,0,0,1,311.271,1629.879Zm-7.2-.688h6.875l.329-12.817h-8.1Z" transform="translate(-302.475 -1615.7)" fill-rule="evenodd"/>
        </g>
        <g id="_Group_36" data-name="&lt;Group&gt;" transform="translate(34.373 97.147)">
          <path id="_Path_49" data-name="&lt;Path&gt;" d="M298.832,1670.344l5.362,2.246s3.265-5.076,5.018-4.836,5.946,5.615,10.29,8.339c2.936,1.842,9.107,6.873,7.2,8.984s-6.336,3.219-9.945,2.68c-2.786-.419-12.536-2.65-16.85-3.668a2.711,2.711,0,0,1-2.112-2.68A66.989,66.989,0,0,1,298.832,1670.344Z" transform="translate(-297.469 -1667.399)" fill="#fff"/>
          <path id="_Compound_Path_30" data-name="&lt;Compound Path&gt;" d="M316.775,1686.267a12.061,12.061,0,0,1-1.947-.15c-2.8-.419-12.731-2.7-16.88-3.668a3.05,3.05,0,0,1-2.352-3.009,65.906,65.906,0,0,1,1.033-11.125.33.33,0,0,1,.18-.24.379.379,0,0,1,.285-.015l5.092,2.141c.734-1.107,3.475-5,5.2-4.761.989.135,2.411,1.482,4.374,3.354a41.25,41.25,0,0,0,6.051,5.045c2.352,1.468,7.339,5.36,7.7,8a1.751,1.751,0,0,1-.419,1.5C323.485,1685.114,320.07,1686.267,316.775,1686.267Zm-19.561-17.413a68.7,68.7,0,0,0-.944,10.585,2.4,2.4,0,0,0,1.842,2.351c4.119.958,14.034,3.249,16.82,3.653,3.625.539,7.863-.584,9.646-2.56a1.1,1.1,0,0,0,.255-.943c-.315-2.246-4.958-6.019-7.384-7.531a42.143,42.143,0,0,1-6.156-5.12c-1.663-1.573-3.22-3.069-4-3.174-1.123-.15-3.475,2.8-4.688,4.7a.349.349,0,0,1-.419.12ZM295.926,1679.439Z" transform="translate(-295.596 -1665.43)" fill-rule="evenodd"/>
        </g>
        <path id="_Path_50" data-name="&lt;Path&gt;" d="M327.86,1758.854c-7.819,0-18.333-4.237-18.932-4.477a.348.348,0,0,1-.18-.449.336.336,0,0,1,.434-.179c.195.075,19.262,7.771,24.878,2.71a.339.339,0,0,1,.464.494c-1.543,1.393-3.939,1.9-6.665,1.9Z" transform="translate(-272.383 -1643.355)"/>
        <path id="_Path_51" data-name="&lt;Path&gt;" d="M378.864,1709.982a.329.329,0,0,1-.255-.1.334.334,0,0,1,.03-.479l3.819-3.459a.348.348,0,0,1,.479.03.334.334,0,0,1-.015.479l-3.834,3.444A.331.331,0,0,1,378.864,1709.982Z" transform="translate(-331.729 -1602.658)"/>
        <path id="_Path_52" data-name="&lt;Path&gt;" d="M120.549,1016.6s-.914,37.132-.075,52.09c.824,14.943-4.958,42.417-4.958,42.417-3.265,2.052-12.372,1.647-12.372,1.647-.389-5.929-4.418-81.257-4.418-81.257s-4.958,15.093-6.411,24.645a81.374,81.374,0,0,1-4.868,16.724,27.266,27.266,0,0,0-1.872,8.37c-.7,11.035-1.273,31.548-1.273,31.548l-11.623.6s-4.074-23.4-2.861-37.971c1.228-14.553,3.565-56.746,3.565-56.746Z" transform="translate(-69.071 -1016.6)" fill="#f4bc03"/>
        <path id="_Path_53" data-name="&lt;Path&gt;" d="M137.206,1422.783a6.789,6.789,0,0,1-1.977-.285.336.336,0,0,1,.195-.644,6.214,6.214,0,0,0,3.729-.06.324.324,0,0,1,.419.21.34.34,0,0,1-.21.434A6.7,6.7,0,0,1,137.206,1422.783Z" transform="translate(-124.67 -1361.111)" fill="#fff"/>
        <path id="_Path_54" data-name="&lt;Path&gt;" d="M331.545,1448.4h-.015a.357.357,0,0,1-.329-.344c.12-6.962,7.773-19.45,8.088-19.974a.343.343,0,0,1,.479-.105.335.335,0,0,1,.1.464c-.075.12-7.878,12.847-8,19.614A.336.336,0,0,1,331.545,1448.4Z" transform="translate(-291.494 -1366.337)" fill="#fff"/>
      </g>
      <g id="_Group_37" data-name="&lt;Group&gt;" transform="translate(0 31.492)">
        <g id="_Group_38" data-name="&lt;Group&gt;" transform="translate(99.659 2.207)">
          <path id="_Path_55" data-name="&lt;Path&gt;" d="M668.2,491.992a42.755,42.755,0,0,0,3.984-4.806s4.493-7.561,7.893-10.286,3.939-3.1,3.939-3.1a2.787,2.787,0,0,1,0,3.1,33.637,33.637,0,0,1-2.756,3.414,1.882,1.882,0,0,0-.045,2.441,4.16,4.16,0,0,1,.569,4.432,6.3,6.3,0,0,1-5.527,3.908,1.33,1.33,0,0,0-1.153.958c-.24.883-.674,2.351-1.333,4.192Z" transform="translate(-667.867 -473.464)" fill="#fff"/>
          <path id="_Compound_Path_31" data-name="&lt;Compound Path&gt;" d="M671.88,494.666a.3.3,0,0,1-.195-.06l-5.572-4.252a.288.288,0,0,1-.135-.24.274.274,0,0,1,.09-.255,46.14,46.14,0,0,0,3.954-4.761c.165-.3,4.538-7.636,7.953-10.376,3.37-2.71,3.939-3.1,3.954-3.114a.365.365,0,0,1,.464.075,3.108,3.108,0,0,1,.015,3.489,33.3,33.3,0,0,1-2.786,3.474,1.5,1.5,0,0,0-.03,1.991,4.528,4.528,0,0,1,.614,4.776,6.588,6.588,0,0,1-5.811,4.117.96.96,0,0,0-.854.7c-.255.913-.689,2.381-1.333,4.207a.347.347,0,0,1-.225.21A.331.331,0,0,1,671.88,494.666Zm-5.063-4.627,4.9,3.743c.554-1.617.944-2.9,1.168-3.728a1.683,1.683,0,0,1,1.453-1.213,5.893,5.893,0,0,0,5.242-3.683,3.841,3.841,0,0,0-.509-4.088,2.223,2.223,0,0,1,.045-2.89,33.282,33.282,0,0,0,2.726-3.369,2.427,2.427,0,0,0,.18-2.426c-.419.329-1.423,1.093-3.625,2.86-3.31,2.665-7.759,10.136-7.8,10.211A43.5,43.5,0,0,1,666.818,490.04Z" transform="translate(-665.975 -471.557)" fill-rule="evenodd"/>
        </g>
        <g id="_Group_39" data-name="&lt;Group&gt;" transform="translate(0.004)">
          <g id="_Group_40" data-name="&lt;Group&gt;" transform="translate(19.454)">
            <path id="_Path_56" data-name="&lt;Path&gt;" d="M133.9,461.779s14.139-6.828,33.865.629c16.506,6.244-2.861,51.521.24,81.466,0,0-25.972,3.923-33.251-5.959-3.849-5.21-.854-76.136-.854-76.136Z" transform="translate(-132.446 -458.607)" fill="#f4bc03"/>
            <path id="_Compound_Path_32" data-name="&lt;Compound Path&gt;" d="M154.625,543.219c-8,0-17.929-1.258-22.092-6.9-3.864-5.24-1.019-73.456-.9-76.346a.328.328,0,0,1,.195-.3c.135-.06,14.484-6.8,34.12.629,10.1,3.818,7.2,21.336,3.849,41.639-2.277,13.79-4.643,28.059-3.4,40.112a.335.335,0,0,1-.285.374A86.144,86.144,0,0,1,154.625,543.219ZM132.293,460.2c-1.033,24.555-2.187,71.689.794,75.717,6.635,9.029,29.611,6.289,32.607,5.884-1.183-12.068,1.168-26.247,3.43-39.977,3.31-19.988,6.171-37.267-3.415-40.89C147.525,454.057,134.015,459.462,132.293,460.2Z" transform="translate(-130.512 -456.814)" fill-rule="evenodd"/>
          </g>
          <g id="_Group_41" data-name="&lt;Group&gt;" transform="translate(45.432 1.961)">
            <path id="_Path_57" data-name="&lt;Path&gt;" d="M322.935,507.79s9.316,68.68,7.174,80.418c0,0-4.433.389-21.388.763.419-17.039,1.318-67-1.812-80.852-2.621-11.694,2.681-27.43,6.141-35.919a21.056,21.056,0,0,1,4.613,1.827c8.522,4.926,17.1,17.249,17.1,17.249Z" transform="translate(-305.869 -471.858)" fill="#fff"/>
            <path id="_Compound_Path_33" data-name="&lt;Compound Path&gt;" d="M306.81,587.358a.341.341,0,0,1-.24-.09.336.336,0,0,1-.09-.255c.359-15.422,1.333-66.838-1.812-80.763-2.651-11.8,2.726-27.7,6.156-36.129a.348.348,0,0,1,.419-.195,23,23,0,0,1,4.673,1.857c8.492,4.926,17.135,17.234,17.21,17.353a.337.337,0,0,1,0,.4l-11.758,16.4c.584,4.312,9.256,68.874,7.159,80.388a.349.349,0,0,1-.3.285c-.045,0-4.628.389-21.4.749Zm4.538-116.7c-3.415,8.43-8.6,23.956-6.021,35.44,3.13,13.91,2.217,64.712,1.827,80.568,14.319-.314,19.591-.644,20.745-.719,1.932-12.263-7.13-79.37-7.219-80.059a.36.36,0,0,1,.06-.24l11.7-16.32c-1.138-1.587-9.077-12.457-16.85-16.964A22,22,0,0,0,311.348,470.661Z" transform="translate(-303.958 -469.914)" fill-rule="evenodd"/>
          </g>
          <g id="_Group_42" data-name="&lt;Group&gt;" transform="translate(0 0.905)">
            <path id="_Path_58" data-name="&lt;Path&gt;" d="M45.847,581.063c-11.353-1.078-36.561-4.627-38.149.554l5.182-25.064A290.194,290.194,0,0,0,15.8,514.525l-.03-14.763L3.983,501.543s-6.156-25.274,11.2-32.7A58.136,58.136,0,0,1,27.619,465.1c4.868,9.448,13.525,28.029,14.723,42.972C43.69,524.871,43.915,553,45.847,581.063Z" transform="translate(-2.58 -464.764)" fill="#fff"/>
            <path id="_Compound_Path_34" data-name="&lt;Compound Path&gt;" d="M5.747,580.039a.167.167,0,0,1-.075-.015.336.336,0,0,1-.255-.389L10.6,554.57a291,291,0,0,0,2.921-41.953l-.045-14.374-11.4,1.737a.342.342,0,0,1-.374-.255A48.177,48.177,0,0,1,.774,486.04c.839-9.613,5.107-16.335,12.327-19.42a59.113,59.113,0,0,1,12.492-3.758.365.365,0,0,1,.374.165c5,9.7,13.57,28.179,14.753,43.106.644,7.965,1.018,18.327,1.468,30.32.479,13.086,1.033,27.924,2.037,42.672a.312.312,0,0,1-.1.27.289.289,0,0,1-.27.09c-1.573-.15-3.445-.344-5.422-.554-11.623-1.243-31.079-3.309-32.352.868a.337.337,0,0,1-.33.24Zm10.634-3.414c5.991,0,13.855.749,22.107,1.632,1.827.195,3.55.374,5.033.524-.989-14.643-1.528-29.331-2.007-42.3-.449-11.993-.824-22.339-1.468-30.29-1.168-14.7-9.586-32.925-14.574-42.627a58.437,58.437,0,0,0-12.1,3.683c-7.085,3.024-11.084,9.358-11.907,18.836a47.318,47.318,0,0,0,.824,13.176l11.473-1.752a.34.34,0,0,1,.27.075.375.375,0,0,1,.12.27l.045,14.763a292.8,292.8,0,0,1-2.921,42.073l-4.9,23.657c1.678-1.243,5.257-1.722,10.005-1.722Z" transform="translate(-0.629 -462.856)" fill-rule="evenodd"/>
          </g>
          <path id="_Path_59" data-name="&lt;Path&gt;" d="M377.2,1047.589q-.015.015-.015,0a2.588,2.588,0,0,1-1.9-.973c-2.711-3.084-2.007-12.682-1.977-13.086a.389.389,0,0,1,.135-.239.348.348,0,0,1,.27-.06,19.992,19.992,0,0,0,7.474-.389.342.342,0,1,1,.18.659,20.184,20.184,0,0,1-7.4.449c-.1,1.782-.419,9.672,1.827,12.218a1.982,1.982,0,0,0,1.423.749.335.335,0,0,1,.315.359A.32.32,0,0,1,377.2,1047.589Z" transform="translate(-317.402 -946.586)"/>
          <path id="_Path_60" data-name="&lt;Path&gt;" d="M127.84,1046.177H127.8a.346.346,0,0,1-.33-.344.336.336,0,0,1,.33-.344h.045a5.329,5.329,0,0,0,4.074-1.767c3.475-3.833,3.041-12.652,2.891-14.628-8.418,2.216-16.91-.539-17-.554a.339.339,0,0,1-.21-.434.324.324,0,0,1,.419-.21c.09.015,8.657,2.785,17,.434a.314.314,0,0,1,.285.045.35.35,0,0,1,.15.255c.045.449,1.078,11.02-3.041,15.542A5.911,5.911,0,0,1,127.84,1046.177Z" transform="translate(-100.06 -942.373)"/>
        </g>
        <g id="_Group_43" data-name="&lt;Group&gt;" transform="translate(60.106 13.462)">
          <path id="_Path_61" data-name="&lt;Path&gt;" d="M449.784,563.009c-3.25,9.223-11.907,23.612-28.7,24.345-5.826.255-11.5-5.525-19.187-11.274,0,0,8.043-24.2,8.582-23.552,2.5,3.1,8.792,11.993,14.274,12.143,8.118.225,12.027-4.552,16.221-8.984Z" transform="translate(-401.9 -551.648)" fill="#fff"/>
          <path id="_Path_62" data-name="&lt;Path&gt;" d="M427.241,582.774c-4.6,0-8.957-3.444-14.439-7.786-1-.794-2.022-1.6-3.1-2.426a.367.367,0,0,1-.06-.479.352.352,0,0,1,.479-.06c1.063.823,2.1,1.647,3.1,2.426,5.527,4.387,9.9,7.846,14.379,7.651,18.483-.809,26.271-18.207,28.323-23.911l-8.388-6.962-.6.629c-3.894,4.147-7.923,8.445-15.667,8.235-5-.135-10.544-7.2-13.51-10.99-.629-.794-1.108-1.407-1.468-1.812a.349.349,0,0,1,.03-.479.335.335,0,0,1,.479.03c.374.419.869,1.048,1.483,1.842,2.906,3.713,8.313,10.6,13,10.735,7.444.195,11.189-3.8,15.158-8.025l.809-.868a.345.345,0,0,1,.464-.03l8.822,7.322a.351.351,0,0,1,.1.374c-1.962,5.555-9.855,23.747-29.012,24.585Z" transform="translate(-408.429 -546.723)"/>
        </g>
        <g id="_Group_44" data-name="&lt;Group&gt;" transform="translate(31.832 19.867)">
          <g id="_Group_45" data-name="&lt;Group&gt;" transform="translate(3.682)">
            <path id="_Path_63" data-name="&lt;Path&gt;" d="M264.289,627.41H242.181a2.284,2.284,0,0,1-2.2-2.86l8.208-31.158a2.279,2.279,0,0,1,2.2-1.692h22.092a2.277,2.277,0,0,1,2.2,2.86l-8.193,31.158A2.292,2.292,0,0,1,264.289,627.41Z" transform="translate(-239.576 -591.371)" fill="#fff"/>
            <path id="_Compound_Path_35" data-name="&lt;Compound Path&gt;" d="M262.418,625.869H240.311a2.6,2.6,0,0,1-2.516-3.264l8.193-31.158a2.6,2.6,0,0,1,2.531-1.946h22.092a2.618,2.618,0,0,1,2.531,3.264l-8.208,31.158A2.6,2.6,0,0,1,262.418,625.869Zm-13.9-35.695a1.942,1.942,0,0,0-1.872,1.437l-8.208,31.158a1.937,1.937,0,0,0,1.872,2.426h22.107a1.955,1.955,0,0,0,1.872-1.437l8.193-31.158a1.97,1.97,0,0,0-.33-1.677,1.93,1.93,0,0,0-1.543-.749Z" transform="translate(-237.705 -589.5)" fill-rule="evenodd"/>
          </g>
          <g id="_Group_46" data-name="&lt;Group&gt;" transform="translate(0 8.984)">
            <path id="_Path_64" data-name="&lt;Path&gt;" d="M215.4,661.2l2.861-1.153a4.034,4.034,0,0,0,2.382-2.575c.165-.479.329-1.078.524-1.812.764-2.92,3.026-4.641,3.909-3.444.524.719-.794,2.89-.539,4.327.449,2.456,4.808.644,5.542.374a12.485,12.485,0,0,0,3.175-1.991,1.294,1.294,0,0,1,1.977,1.3c-.33,2.051-1.168,4.671-3.19,5.929a11.9,11.9,0,0,1-6.515,2.216,5.419,5.419,0,0,0-2.606.883c-1.183.764-3.1,1.991-5.452,3.4Z" transform="translate(-215.059 -651.481)" fill="#fff"/>
            <path id="_Compound_Path_36" data-name="&lt;Compound Path&gt;" d="M215.531,667.022a.265.265,0,0,1-.12-.03.274.274,0,0,1-.195-.225l-2.082-7.456a.339.339,0,0,1,.21-.4l2.846-1.153a3.753,3.753,0,0,0,2.2-2.366c.165-.509.33-1.123.509-1.8.554-2.066,1.932-3.818,3.205-4.058a1.234,1.234,0,0,1,1.3.494c.374.509.135,1.318-.135,2.261a5.771,5.771,0,0,0-.345,2.216,1.061,1.061,0,0,0,.524.779c.539.3,1.737.434,4.463-.629l.09-.03a7.407,7.407,0,0,0,2.112-1.213c.27-.225.6-.464,1.019-.749a1.583,1.583,0,0,1,1.767,0,1.633,1.633,0,0,1,.734,1.647c-.344,2.066-1.213,4.821-3.355,6.154a12.066,12.066,0,0,1-6.53,2.261h-.15a5.412,5.412,0,0,0-2.441.838c-1.2.779-3.115,1.991-5.452,3.414A.343.343,0,0,1,215.531,667.022Zm-1.663-7.606,1.872,6.753c2.157-1.318,3.924-2.44,5.063-3.174a5.892,5.892,0,0,1,2.756-.943h.135a11.659,11.659,0,0,0,6.231-2.156c1.932-1.2,2.726-3.758,3.041-5.7a.949.949,0,0,0-.419-.958.928.928,0,0,0-1.033,0c-.4.269-.7.494-.989.719a7.752,7.752,0,0,1-2.262,1.3l-.1.03c-2.411.943-4.059,1.138-5.033.6a1.741,1.741,0,0,1-.854-1.258,6.038,6.038,0,0,1,.359-2.53c.18-.629.4-1.422.24-1.662a.561.561,0,0,0-.629-.225c-.884.165-2.157,1.572-2.681,3.549-.18.689-.359,1.317-.524,1.841a4.429,4.429,0,0,1-2.591,2.785Z" transform="translate(-213.123 -649.505)" fill-rule="evenodd"/>
          </g>
        </g>
        <g id="_Group_47" data-name="&lt;Group&gt;" transform="translate(0 25.167)">
          <path id="_Path_65" data-name="&lt;Path&gt;" d="M38.233,646.341c-8.657,5.225-23.081,13.086-27.724,10.391C4.548,653.288,2.9,630.066,2.9,628.673L20.948,624.9l.854,8.729a3.667,3.667,0,0,0,3.834,3.249,36.586,36.586,0,0,0,9.166-1.363Z" transform="translate(-2.556 -624.9)" fill="#fff"/>
          <path id="_Path_66" data-name="&lt;Path&gt;" d="M11.04,660.67a5.322,5.322,0,0,1-2.666-.6C2.038,656.418.6,631.967.6,631.728a.346.346,0,0,1,.344-.33.336.336,0,0,1,.344.33c0,1.991,1.782,24.5,7.429,27.759,3.34,1.931,12.986-1.692,27.155-10.241l-3.25-10.271a33.644,33.644,0,0,1-8.238,1.258l-.689.03a4,4,0,0,1-4.194-3.534l-.764-7.876a.334.334,0,0,1,.3-.359.34.34,0,0,1,.374.3l.764,7.861a3.347,3.347,0,0,0,3.49,2.935l.689-.03a34.631,34.631,0,0,0,8.418-1.318.335.335,0,0,1,.4.225l3.415,10.84a.323.323,0,0,1-.15.389C27.74,654.95,16.926,660.67,11.04,660.67Z" transform="translate(-0.6 -627.955)"/>
        </g>
      </g>
      <g id="_Group_48" data-name="&lt;Group&gt;" transform="translate(28.609)">
        <g id="_Group_49" data-name="&lt;Group&gt;" transform="translate(0 16.346)">
          <path id="_Path_67" data-name="&lt;Path&gt;" d="M206.853,361.765a.265.265,0,0,1,.165.21l1.138,9.7c.225,1.377,0,2.95,1.588,3.683l1.767.719a.9.9,0,0,1-.045,1.692,28.027,28.027,0,0,1-8.942,1.677,16.533,16.533,0,0,1-8.193-2.351.907.907,0,0,1,.225-1.662l.3-.075c1.318-.359,2.157-2.021,2.352-3.384l1.393-13.79a.273.273,0,0,1,.389-.225Z" transform="translate(-193.539 -357.597)" fill="#fff"/>
          <path id="_Compound_Path_37" data-name="&lt;Compound Path&gt;" d="M200.55,377.857a16.941,16.941,0,0,1-8.313-2.4,1.208,1.208,0,0,1-.614-1.243,1.231,1.231,0,0,1,.914-1.048l.3-.075c1.123-.3,1.932-1.827,2.1-3.1l1.393-13.79a.608.608,0,0,1,.315-.464.592.592,0,0,1,.569-.015l7.863,3.788a.608.608,0,0,1,.344.479l1.138,9.7c.045.285.075.569.1.853.1,1.108.195,2.066,1.288,2.56l1.767.719a1.224,1.224,0,0,1,.764,1.183,1.211,1.211,0,0,1-.824,1.138,28.7,28.7,0,0,1-9.062,1.707ZM197,356.371l-1.393,13.7c-.21,1.542-1.168,3.294-2.606,3.683l-.285.075a.541.541,0,0,0-.419.479.567.567,0,0,0,.27.569,16.567,16.567,0,0,0,8.028,2.306,28.383,28.383,0,0,0,8.837-1.662.546.546,0,0,0,.374-.524.559.559,0,0,0-.359-.539l-1.767-.719c-1.453-.674-1.588-1.976-1.692-3.114-.03-.285-.06-.569-.1-.824l-1.138-9.687ZM204.789,360.129Z" transform="translate(-191.61 -355.662)" fill-rule="evenodd"/>
        </g>
        <g id="_Group_50" data-name="&lt;Group&gt;" transform="translate(0.513)">
          <path id="_Path_68" data-name="&lt;Path&gt;" d="M220.236,258.183c-1.2,1.722-5.272-.674-6.995,1.378-1.123,1.333.629,3.159,1.378,9.538.15,1.348.21,2.74.24,3.863a1.818,1.818,0,0,1-1.423,1.812c-5.227,1.138-8.043,0-9.062-1.228-1.633-1.946-.359-5.375-2.262-6.438-1.468-.823-2.966.809-4.239-.045-1.258-.839-.449-2.875-.809-6.633-.494-5.345-2.262-6.423-2.007-8.834.18-1.827,1.6-4,2.966-4.013,2.067-.045,1.947-.12,5.632,2.006,1,.569.09-4.776,3.939-2.56,9.661,5.555,6.83,1.812,9.6,2.65C221,250.831,221.48,256.386,220.236,258.183Z" transform="translate(-195.033 -246.487)" fill="#fc6e51"/>
          <g id="_Group_51" data-name="&lt;Group&gt;" transform="translate(9.573 7.3)">
            <path id="_Path_69" data-name="&lt;Path&gt;" d="M270.157,298.41a30.629,30.629,0,0,0,2.067,9.343.846.846,0,0,1-.7,1.138l-.794.12-.659,1.108s-6.755.868-7.189-1.288c-.3-1.467-.614-4.117-.794-5.66a16.725,16.725,0,0,0-.449-2.426l-.434-1.707A9.3,9.3,0,0,1,270.157,298.41Z" transform="translate(-260.863 -297.204)" fill="#fff"/>
            <path id="_Compound_Path_38" data-name="&lt;Compound Path&gt;" d="M265.322,308.683c-2.037,0-4.4-.314-4.688-1.752-.3-1.5-.629-4.192-.794-5.675a16.085,16.085,0,0,0-.449-2.4l-.434-1.692a.356.356,0,0,1,.15-.374,9.551,9.551,0,0,1,9.286-.644.314.314,0,0,1,.18.3,31.109,31.109,0,0,0,2.052,9.223,1.188,1.188,0,0,1-.374,1.348,1.369,1.369,0,0,1-.584.255l-.644.09-.584.973a.313.313,0,0,1-.24.165A26.629,26.629,0,0,1,265.322,308.683Zm-5.647-11.439.374,1.452a19.671,19.671,0,0,1,.464,2.485c.165,1.467.494,4.147.779,5.615.27,1.318,4.149,1.348,6.65,1.048l.584-.958a.34.34,0,0,1,.24-.165l.794-.12a.44.44,0,0,0,.255-.1.519.519,0,0,0,.18-.584,31.428,31.428,0,0,1-2.1-9.253A9.071,9.071,0,0,0,259.676,297.244Z" transform="translate(-258.949 -295.244)" fill-rule="evenodd"/>
          </g>
          <path id="_Path_70" data-name="&lt;Path&gt;" d="M239.694,325.494s-1.033-4.088-2.786-3.2S236.414,327.635,239.694,325.494Z" transform="translate(-229.963 -310.834)" fill="#fff"/>
        </g>
      </g>
    </g>
  </g>
</svg>
