<svg xmlns="http://www.w3.org/2000/svg" width="21.187" height="21.187" viewBox="0 0 21.187 21.187">
  <g id="Group_145" data-name="Group 145" transform="translate(0.687 0.5)">
    <path id="Path_23" data-name="Path 23" d="M212.963,163.5a.4.4,0,1,1,.345-.722,9.2,9.2,0,1,0-4.337-4.337.4.4,0,0,1-.722.345,10,10,0,1,1,4.714,4.714Zm7.985-12.313L220.927,158a.4.4,0,1,1-.8,0l0-5.418c0-.22-.125-.275-.28-.119l-6.823,6.823a.4.4,0,0,1-.565-.565l6.823-6.823c.152-.152.1-.28-.119-.28l-5.418,0a.4.4,0,1,1,0-.8l6.8-.031a.394.394,0,0,1,.4.4Z" transform="translate(-207.274 -144.479)" fill="#fc6e51" stroke="#fc6e51" stroke-width="1" fill-rule="evenodd"/>
  </g>
</svg>
