
<svg xmlns="http://www.w3.org/2000/svg" width="146.728" height="50" viewBox="0 0 146.728 50">
  <g id="Group_199" data-name="Group 199" transform="translate(-209 -211.573)">
    <text id="LifeSaver" transform="translate(312.728 244.096)" font-size="20" font-family="Roboto-Bold, Roboto" font-weight="700"><tspan x="-42" y="0">LifeSaver</tspan></text>
    <g id="Graphic_Elements" data-name="Graphic Elements" transform="translate(209 211.573)">
      <g id="_Group_" data-name="&lt;Group&gt;" transform="translate(0 0)">
        <g id="_Group_2" data-name="&lt;Group&gt;" transform="translate(0)">
          <path id="_Path_" data-name="&lt;Path&gt;" d="M34.366,11.536c-.272-1.568-.491-3.136-.692-4.711L33.6,6.24l-.036-.3-.006-.071c-.006-.024-.006-.053-.012-.071L33.52,5.7a2.275,2.275,0,0,0-.325-.8,2.154,2.154,0,0,0-.556-.6,2.132,2.132,0,0,0-.7-.343,2.173,2.173,0,0,0-.728-.065l-1.1.1L28.934,4.1l-1.178.095c-1.568.13-3.142.237-4.711.337-.787.047-1.574.089-2.355.136l-.3.018-.148.006h-.053l-.006.006-.03.006a.274.274,0,0,1-.053.006c-.018.006-.036.006-.053.012-.036.012-.071.018-.107.03a1.189,1.189,0,0,0-.355.207,1.26,1.26,0,0,0-.254.308,1.093,1.093,0,0,0-.118.355A.919.919,0,0,0,19.2,5.8a.194.194,0,0,1,.006.047V5.9l.012.3.036,1.178c.053,1.574.089,3.142.118,4.717.012.391.012.781.018,1.178v.112l-.006.13-.012.254a1.939,1.939,0,0,1-.024.254q-.018.124-.036.254c-.024.166-.071.331-.112.5a1.924,1.924,0,0,1-.065.249q-.041.118-.083.243a5.7,5.7,0,0,1-2.639,3.036c-.154.077-.308.154-.462.219s-.324.122-.485.178-.331.093-.5.136-.343.059-.509.083c-.089.012-.172.018-.254.024l-.254.012c-.207.012-.26.006-.367.012h-.592l-2.355-.012c-.787-.012-1.574-.018-2.361-.03l-2.184-.036a.9.9,0,0,0-.337.053,1.09,1.09,0,0,0-.32.183,1.151,1.151,0,0,0-.243.29,1.258,1.258,0,0,0-.124.373v.024l-.006.012v.024L5.055,20l-.012.3-.024.592-.053,1.178c-.036.787-.071,1.574-.112,2.355s-.089,1.574-.136,2.361-.095,1.574-.154,2.355q-.041.592-.089,1.184l-.071.994a1.827,1.827,0,0,0,.112.681,1.983,1.983,0,0,0,.373.633,2.073,2.073,0,0,0,.6.479l.089.047a.459.459,0,0,0,.095.041l.089.041c.03.012.065.018.1.03l.095.03.053.018.047.006.107.024.047.012h.03l.036.006q1.184.124,2.361.26c1.574.189,3.142.391,4.717.657-1.568.278-3.142.491-4.711.7q-1.178.148-2.355.278l-.036.006H6.2l-.095.006-.189.006-.1.006c-.03,0-.065-.006-.095-.006l-.2-.012c-.059-.006-.13-.006-.189-.018l-.2-.036a1.793,1.793,0,0,1-.189-.036l-.2-.047a4.424,4.424,0,0,1-2.527-1.888,4.518,4.518,0,0,1-.61-1.55L1.6,31.58c-.006-.03-.006-.065-.012-.1l-.024-.213-.012-.107-.012-.095-.012-.148-.047-.586q-.053-.592-.1-1.178c-.065-.787-.118-1.574-.178-2.355s-.107-1.574-.154-2.361S.954,22.869.913,22.082L.847,20.9l-.03-.586-.012-.3L.8,19.874v-.231a5.325,5.325,0,0,1,1.42-3.586,5.543,5.543,0,0,1,1.586-1.2,5.44,5.44,0,0,1,1.917-.544l.254-.018c.077-.006.178-.012.213-.012l.3-.012.592-.018,1.178-.03c.781-.018,1.568-.03,2.355-.047l2.355-.036.592-.006a1.809,1.809,0,0,0,.225-.006h.036a.1.1,0,0,0,.041-.006c.024-.006.047-.006.071-.012A.467.467,0,0,1,14,14.1a.184.184,0,0,1,.065-.024.4.4,0,0,1,.071-.036.981.981,0,0,0,.237-.183.943.943,0,0,0,.154-.254.149.149,0,0,1,.018-.036c.006-.012,0-.024.006-.036s.024-.047.018-.071l.012-.036c0-.012.006-.03.006-.041v-.059l.006-.006v-.024c0-.4,0-.787.006-1.184.018-1.568.036-3.142.071-4.711l.03-1.184.006-.29.006-.118.012-.124.018-.243a5.376,5.376,0,0,1,.189-.976,5.241,5.241,0,0,1,.888-1.758,5.331,5.331,0,0,1,1.438-1.314,5.267,5.267,0,0,1,1.8-.7c.16-.03.32-.047.479-.065.083-.012.16-.012.243-.018L20.021.6h.207l.148.006.29.012c.787.036,1.574.077,2.361.118,1.574.083,3.142.178,4.717.29l1.178.083L30.1,1.2l.592.047.3.024.166.018.207.018a4.528,4.528,0,0,1,1.55.491,4.275,4.275,0,0,1,1.231.988,4.2,4.2,0,0,1,.775,1.332A4.11,4.11,0,0,1,35.141,5.6l-.006.183c0,.03-.006.053-.006.077l-.012.077-.03.3-.071.586c-.189,1.574-.391,3.148-.651,4.717Z" transform="translate(-0.8 -0.6)"/>
        </g>
        <g id="_Group_3" data-name="&lt;Group&gt;" transform="translate(14.191 15.496)">
          <path id="_Path_2" data-name="&lt;Path&gt;" d="M252.9,269.34c-.219.113-.432.219-.645.337s-.426.237-.639.355c-.42.237-.835.485-1.231.746s-.793.532-1.172.816c-.189.142-.373.29-.556.438s-.355.3-.533.456c-.343.307-.681.628-.988.965a11.724,11.724,0,0,0-.858,1.036l-.094.136a1.105,1.105,0,0,0-.095.136c-.059.095-.124.184-.178.272l-.171.284q-.042.071-.077.142l-.077.142-.077.148a1.583,1.583,0,0,0-.071.142c-.047.1-.1.2-.142.3l-.13.3c-.042.1-.077.207-.112.3a11.184,11.184,0,0,0-.379,1.249,12.82,12.82,0,0,0-.237,1.29l-.024.166-.018.165-.036.332c-.024.231-.047.462-.065.686s-.035.462-.041.687l-.018.343c-.006.118-.006.231-.011.343-.03.917-.012,1.834.035,2.764.018.461.047.935.083,1.408l.1,1.432c.03.479.071.965.1,1.456l.095,1.414.03.343.018.16.006.071.006.071a2.906,2.906,0,0,0,.089.462.825.825,0,0,0,.1.254.23.23,0,0,0,.03.041c.012.012.017.03.029.041l.012.012a.086.086,0,0,1,.018.024.3.3,0,0,0,.041.041,1.1,1.1,0,0,0,.4.272.991.991,0,0,0,.462.071l1.409-.042,1.45-.041c1.935-.053,3.864-.089,5.8-.119l1.45-.023.728-.006h.089a.049.049,0,0,1,.024-.006.2.2,0,0,1,.047-.006c.018.006.03-.006.048-.006a.129.129,0,0,1,.041-.006.9.9,0,0,0,.332-.16.721.721,0,0,0,.23-.284.849.849,0,0,0,.1-.349v-1.379l.006-2.9.03-2.906c0-.13,0-.2.012-.45,0-.1.009-.205.017-.308a2.8,2.8,0,0,1,.042-.308c.018-.106.03-.207.053-.308s.049-.2.077-.307a5.4,5.4,0,0,1,.2-.592l.059-.142.065-.142c.047-.094.093-.187.136-.278.023-.047.053-.094.077-.136l.083-.137c.053-.088.106-.177.166-.26l.189-.248a1.879,1.879,0,0,1,.2-.237,4.268,4.268,0,0,1,.432-.444,5.592,5.592,0,0,1,2.13-1.22c.2-.047.4-.107.6-.142.1-.016.2-.03.3-.041l.154-.018c.053-.006.1-.006.154-.012l.308-.012h.225l.367.006c.965.024,1.935.053,2.9.077s1.935.059,2.9.095l.728.024.361.017.183.006h.112a1.369,1.369,0,0,0,.574-.083l.018-.006.018-.012.03-.017a.53.53,0,0,0,.071-.03.384.384,0,0,1,.065-.041.238.238,0,0,0,.065-.042.613.613,0,0,0,.124-.095.752.752,0,0,0,.059-.053.474.474,0,0,0,.053-.053,1.356,1.356,0,0,0,.326-.556.556.556,0,0,1,.018-.083l.018-.035a.136.136,0,0,1,.006-.047c0-.028.008-.055.012-.083l.006-.023c0-.006,0-.006.006-.024v-.095l.042-.722.077-1.45q.169-2.9.379-5.805.107-1.456.225-2.906l.018-.184v-.041a.331.331,0,0,1,.006-.042v-.065l.012-.13v-.136c0-.043-.006-.086-.006-.13l-.017-.136a1,1,0,0,0-.018-.13l-.035-.136-.012-.065c-.006-.024-.017-.042-.023-.065l-.041-.13a.638.638,0,0,0-.059-.13l-.053-.125-.071-.124a.82.82,0,0,0-.077-.118l-.083-.118a.338.338,0,0,0-.042-.059l-.047-.053a2.744,2.744,0,0,0-.935-.716,1.441,1.441,0,0,0-.142-.059.988.988,0,0,0-.148-.053l-.148-.042a1.288,1.288,0,0,0-.154-.035l-.154-.03-.083-.012-.089-.012-.361-.041c-.971-.107-1.935-.213-2.906-.349.965-.148,1.935-.261,2.9-.379l.361-.047.095-.006.1-.006.207-.011c.065-.006.136,0,.207,0l.208.011c.071.006.136.018.207.03l.207.036a3.816,3.816,0,0,1,1.55.734l.088.065c.024.023.053.047.077.071l.165.154a1.929,1.929,0,0,1,.148.16l.148.172.136.178a1.417,1.417,0,0,1,.124.189l.119.2c.018.03.036.065.053.095l.048.107.095.207a1.558,1.558,0,0,1,.077.213q.042.113.077.219l.053.225.024.112.012.059.006.053.03.231.018.119.006.094.018.183q.136,1.45.254,2.9.24,2.894.432,5.8l.1,1.45.041.728.006.088v.409c-.006.048,0,.095-.006.136l-.018.142c-.008.091-.018.183-.03.278a5.092,5.092,0,0,1-2.5,3.615,5.148,5.148,0,0,1-2.208.657l-.142.012h-.059l-.047.006-.183.006-.361.018-.722.036c-.971.041-1.935.083-2.906.118s-1.929.071-2.9.1l-.361.012h-.089l-.024.005h-.024l-.053.012h-.03l-.03.012-.053.012h-.012l-.011.005-.024.012-.053.012a1.04,1.04,0,0,0-.349.249c-.03.023-.042.059-.071.083a.147.147,0,0,0-.023.041.31.31,0,0,0-.03.047.126.126,0,0,0-.023.047.065.065,0,0,1-.012.018c-.006.012-.012.018-.012.024s-.014.035-.018.047l-.012.023a.055.055,0,0,0-.006.024.65.65,0,0,0-.024.1l-.012.047v.053c0,.018-.012.03-.006.047v.053a2.557,2.557,0,0,0,.006.278l.047,2.9.036,2.9.006.728.006.361v.278l-.006.154a5.652,5.652,0,0,1-.616,2.438,5.534,5.534,0,0,1-1.61,1.917,5.682,5.682,0,0,1-2.29,1.042l-.313.047a2.786,2.786,0,0,1-.314.036c-.1.008-.207.014-.314.018l-.154.006h-.823l-1.45-.006c-1.935-.018-3.87-.035-5.805-.071l-1.45-.024-1.5-.036a5.158,5.158,0,0,1-1.207-.178,5.084,5.084,0,0,1-1.125-.438,5.46,5.46,0,0,1-1.823-1.544l-.177-.249c-.053-.083-.107-.178-.166-.266s-.1-.19-.148-.284-.089-.189-.13-.284a5.526,5.526,0,0,1-.325-1.124,7.953,7.953,0,0,1-.1-.977l-.006-.112v-.106c-.006-.071-.006-.136-.006-.2v-.385l.024-1.485.03-1.444c.018-.971.047-1.958.107-2.965.029-.5.071-1.006.119-1.515.029-.248.053-.5.089-.757l.047-.379c.018-.13.042-.255.059-.378.077-.509.172-1.012.272-1.509.053-.248.112-.5.166-.746.03-.124.065-.254.094-.379l.053-.189.053-.19a15.175,15.175,0,0,1,.509-1.509,12.081,12.081,0,0,1,.7-1.45,10.775,10.775,0,0,1,.882-1.35l.124-.154c.043-.055.087-.109.13-.16l.26-.3c.089-.1.177-.2.272-.29.041-.047.089-.094.136-.142l.142-.136c.095-.095.189-.19.29-.272l.3-.261c.1-.082.2-.165.308-.242s.2-.166.307-.237a13.936,13.936,0,0,1,1.278-.84c.438-.255.882-.485,1.337-.7s.912-.4,1.379-.568A19.432,19.432,0,0,1,252.9,269.34Z" transform="translate(-240.6 -262.455)"/>
        </g>
        <g id="_Group_4" data-name="&lt;Group&gt;" transform="translate(13.288 10.369)">
          <path id="_Path_3" data-name="&lt;Path&gt;" d="M226.016,193.923q-.089-.237-.166-.474c-.048-.166-.089-.325-.136-.491a2.431,2.431,0,0,1-.059-.243c-.024-.083-.043-.165-.059-.248l-.053-.255-.047-.249a10.973,10.973,0,0,1-.148-2.077,9.357,9.357,0,0,1,.1-1.071c.023-.183.065-.361.1-.539.018-.094.042-.183.065-.272s.041-.177.071-.266a7.816,7.816,0,0,1,.947-2.077l.166-.237c.059-.083.113-.16.172-.237.124-.154.243-.308.379-.45l.2-.219c.065-.071.136-.136.207-.207s.142-.136.213-.2l.225-.189a9.577,9.577,0,0,1,1.959-1.255c.089-.041.177-.089.26-.124l.266-.113.261-.112c.089-.035.177-.065.26-.1.177-.059.349-.13.527-.184l.266-.089c.083-.03.178-.053.266-.077l.272-.077.272-.065q.266-.071.533-.124c.361-.077.71-.142,1.059-.2,1.4-.225,2.716-.331,3.912-.509.148-.018.3-.042.438-.071l.42-.077c.065-.018.136-.024.207-.041l.2-.053c.136-.03.278-.059.414-.1.266-.077.539-.148.811-.243l.2-.065.1-.03.1-.042.4-.148a22.643,22.643,0,0,0,5.995-3.651l.03-.024a2.4,2.4,0,0,1,3.9,1.58l.018.154.012.136.03.26c.016.174.03.345.042.515.023.343.041.681.053,1.018q.045,1.012.018,2.024c-.012.675-.047,1.355-.113,2.03q-.041.509-.106,1.018c-.041.343-.094.68-.148,1.018a20.771,20.771,0,0,1-1.083,4.066,14.957,14.957,0,0,1-.929,1.977,12.174,12.174,0,0,1-1.3,1.852,10.631,10.631,0,0,1-.8.829c-.148.13-.29.26-.444.385-.077.059-.148.124-.231.178l-.237.177-.059.042-.065.041-.13.089c-.089.059-.178.118-.255.16l-.473.26c-.16.089-.319.16-.474.237s-.314.154-.473.219a17.926,17.926,0,0,1-3.9,1.219,16.837,16.837,0,0,1-3.994.266,13.928,13.928,0,0,1-3.841-.728,22.923,22.923,0,0,0,3.722-.592,21.279,21.279,0,0,0,3.426-1.183,20.145,20.145,0,0,0,3.071-1.728c.119-.083.231-.172.349-.255s.237-.166.337-.255l.32-.248c.059-.047.089-.083.13-.118l.053-.059.03-.03.036-.03c.166-.177.331-.361.479-.55a6.233,6.233,0,0,0,.426-.61,10.567,10.567,0,0,0,1.207-2.894,19.822,19.822,0,0,0,.574-3.32c.03-.284.053-.574.071-.864s.036-.574.042-.87.017-.58.024-.876,0-.584,0-.876c-.012-.592-.03-1.178-.065-1.763q-.03-.444-.065-.876l-.036-.432-.024-.207-.024-.178,3.93,1.551a26.146,26.146,0,0,1-3.516,2.468c-.313.189-.639.355-.958.527-.166.083-.332.166-.5.243l-.249.124-.249.112-.509.225-.515.2c-.089.036-.172.071-.26.1l-.266.095c-.172.059-.349.124-.527.178l-.539.16-.13.041-.136.035-.272.065c-.183.047-.367.1-.55.13l-.55.112c-.184.036-.373.059-.556.089l-.278.041c-.095.012-.189.018-.284.03l-.562.053c-.178.018-.361.024-.538.036-1.421.071-2.734.018-3.953.047-.154.006-.308.006-.456.012s-.3.012-.444.023-.29.018-.432.03l-.219.018-.207.03c-.142.012-.284.035-.426.059s-.284.047-.426.071c-.071.012-.148.024-.213.041l-.2.047-.207.041c-.066.018-.13.041-.2.059a6.542,6.542,0,0,0-2.829,1.515l-.142.142a1.8,1.8,0,0,0-.148.148c-.088.107-.183.207-.272.319l-.13.166-.124.171-.059.089c-.019.028-.039.057-.059.089l-.118.183a8.41,8.41,0,0,0-.746,1.633A15.175,15.175,0,0,0,226.016,193.923Z" transform="translate(-225.343 -175.815)"/>
        </g>
      </g>
    </g>
  </g>
</svg>
