<svg xmlns="http://www.w3.org/2000/svg" width="184.783" height="60.748" viewBox="0 0 184.783 60.748">
  <g id="Group_160" data-name="Group 160" transform="translate(-209 -211.573)">
    <text id="LifeSaver" transform="translate(337.783 252.573)" fill="#0349a6" font-size="26" font-family="Roboto-Bold, Roboto" font-weight="700"><tspan x="-55" y="0">LifeSaver</tspan></text>
    <g id="Graphic_Elements" data-name="Graphic Elements" transform="translate(209 211.573)">
      <g id="_Group_" data-name="&lt;Group&gt;" transform="translate(0 0)">
        <g id="_Group_2" data-name="&lt;Group&gt;" transform="translate(0)">
          <path id="_Path_" data-name="&lt;Path&gt;" d="M41.582,13.887c-.331-1.905-.6-3.811-.841-5.723l-.093-.712L40.6,7.093,40.6,7.006c-.007-.029-.007-.065-.014-.086l-.029-.129a2.764,2.764,0,0,0-.4-.971,2.617,2.617,0,0,0-.676-.726,2.591,2.591,0,0,0-.848-.417,2.64,2.64,0,0,0-.884-.079l-1.337.122-1.431.129-1.431.115c-1.905.158-3.818.288-5.723.41-.956.058-1.913.108-2.862.165l-.359.022-.18.007h-.065l-.007.007-.036.007a.333.333,0,0,1-.065.007c-.022.007-.043.007-.065.014-.043.014-.086.022-.129.036a1.445,1.445,0,0,0-.431.252,1.531,1.531,0,0,0-.309.374,1.328,1.328,0,0,0-.144.431,1.116,1.116,0,0,0-.022.223.236.236,0,0,1,.007.058v.065l.014.359.043,1.431c.065,1.913.108,3.818.144,5.73.014.475.014.949.022,1.431v.137l-.007.158-.014.309a2.356,2.356,0,0,1-.029.309q-.022.151-.043.309c-.029.2-.086.4-.137.611a2.338,2.338,0,0,1-.079.3q-.05.144-.1.295a6.927,6.927,0,0,1-3.207,3.688c-.187.093-.374.187-.561.266s-.393.149-.59.216-.4.113-.6.165-.417.072-.618.1c-.108.014-.209.022-.309.029l-.309.014c-.252.014-.316.007-.446.014h-.719L12.75,22.9c-.956-.014-1.913-.022-2.869-.036l-2.653-.043a1.1,1.1,0,0,0-.41.065,1.324,1.324,0,0,0-.388.223,1.4,1.4,0,0,0-.295.352,1.528,1.528,0,0,0-.151.453v.029l-.007.014v.029l-.007.18-.014.359-.029.719-.065,1.431c-.043.956-.086,1.913-.137,2.862s-.108,1.913-.165,2.869-.115,1.913-.187,2.862q-.05.719-.108,1.438l-.086,1.208a2.22,2.22,0,0,0,.137.827,2.41,2.41,0,0,0,.453.769,2.518,2.518,0,0,0,.726.582l.108.058a.557.557,0,0,0,.115.05l.108.05c.036.014.079.022.122.036l.115.036.065.022.058.007.129.029.058.014h.036l.043.007q1.438.151,2.869.316c1.913.23,3.818.475,5.73.8-1.905.338-3.818.6-5.723.848q-1.431.18-2.862.338l-.043.007H7.365l-.115.007-.23.007-.122.007c-.036,0-.079-.007-.115-.007l-.237-.014c-.072-.007-.158-.007-.23-.022l-.237-.043a2.177,2.177,0,0,1-.23-.043l-.237-.058a5.375,5.375,0,0,1-3.07-2.294A5.489,5.489,0,0,1,1.8,38.369l-.029-.129c-.007-.036-.007-.079-.014-.122l-.029-.259-.014-.129L1.7,37.614l-.014-.18-.058-.712Q1.562,36,1.5,35.292c-.079-.956-.144-1.913-.216-2.862S1.16,30.517,1.1,29.561.987,27.656.937,26.7L.858,25.269l-.036-.712L.807,24.2.8,24.018v-.28A6.469,6.469,0,0,1,2.526,19.38a6.735,6.735,0,0,1,1.927-1.452,6.61,6.61,0,0,1,2.33-.661l.309-.022c.093-.007.216-.014.259-.014l.359-.014.719-.022,1.431-.036c.949-.022,1.905-.036,2.862-.058l2.862-.043.719-.007a2.2,2.2,0,0,0,.273-.007h.043a.122.122,0,0,0,.05-.007c.029-.007.058-.007.086-.014A.568.568,0,0,1,16.841,17a.224.224,0,0,1,.079-.029.483.483,0,0,1,.086-.043,1.192,1.192,0,0,0,.288-.223,1.146,1.146,0,0,0,.187-.309.182.182,0,0,1,.022-.043c.007-.014,0-.029.007-.043s.029-.058.022-.086l.014-.043c0-.014.007-.036.007-.05v-.072l.007-.007v-.029c0-.482,0-.956.007-1.438.022-1.905.043-3.818.086-5.723l.036-1.438.007-.352.007-.144.014-.151.022-.295A6.531,6.531,0,0,1,17.97,5.3,6.368,6.368,0,0,1,19.048,3.16a6.477,6.477,0,0,1,1.747-1.6A6.4,6.4,0,0,1,22.988.708c.194-.036.388-.058.582-.079.1-.014.194-.014.295-.022L24.153.6H24.4l.18.007.352.014c.956.043,1.913.093,2.869.144,1.913.1,3.818.216,5.73.352l1.431.1,1.431.115.719.058.359.029.2.022.252.022a5.5,5.5,0,0,1,1.884.6,5.194,5.194,0,0,1,1.5,1.2,5.1,5.1,0,0,1,.942,1.618,4.994,4.994,0,0,1,.273,1.8l-.007.223c0,.036-.007.065-.007.093l-.014.093-.036.359-.086.712c-.23,1.913-.475,3.825-.791,5.73Z" transform="translate(-0.8 -0.6)" fill="#4a89dc"/>
        </g>
        <g id="_Group_3" data-name="&lt;Group&gt;" transform="translate(17.241 18.827)">
          <path id="_Path_2" data-name="&lt;Path&gt;" d="M255.548,270.82c-.266.137-.525.266-.784.41s-.518.288-.776.432c-.511.288-1.014.59-1.5.906s-.963.647-1.424.992c-.23.173-.453.353-.676.532s-.431.36-.647.554c-.417.374-.827.762-1.2,1.172a14.251,14.251,0,0,0-1.043,1.259l-.115.165a1.343,1.343,0,0,0-.115.165c-.072.115-.151.223-.216.331l-.208.345c-.034.058-.065.115-.094.173l-.094.173-.093.18a1.926,1.926,0,0,0-.086.172c-.057.122-.122.238-.173.36l-.158.36c-.051.123-.093.251-.136.367a13.582,13.582,0,0,0-.46,1.517,15.571,15.571,0,0,0-.287,1.567l-.029.2-.022.2-.043.4c-.029.281-.057.561-.079.834s-.043.561-.05.834l-.022.417c-.007.144-.007.28-.014.417-.036,1.114-.015,2.229.043,3.358.021.561.057,1.136.1,1.711l.122,1.74c.036.582.086,1.172.122,1.769l.115,1.718.036.417.021.194.007.086.007.086a3.53,3.53,0,0,0,.108.561,1,1,0,0,0,.122.309.28.28,0,0,0,.036.05c.014.015.021.036.036.05l.014.015a.1.1,0,0,1,.021.029.361.361,0,0,0,.05.05,1.341,1.341,0,0,0,.489.331,1.2,1.2,0,0,0,.561.086l1.711-.051,1.761-.05c2.351-.065,4.695-.108,7.046-.144l1.761-.028.884-.007h.108a.059.059,0,0,1,.029-.007.245.245,0,0,1,.057-.007c.022.007.036-.007.058-.007a.157.157,0,0,1,.05-.007,1.1,1.1,0,0,0,.4-.194.876.876,0,0,0,.28-.345,1.031,1.031,0,0,0,.115-.424V295.87l.007-3.523.036-3.53c0-.158,0-.245.015-.546,0-.125.011-.25.021-.374a3.4,3.4,0,0,1,.051-.374c.022-.129.036-.251.065-.374s.06-.249.093-.374a6.555,6.555,0,0,1,.237-.719l.072-.172.079-.173c.058-.115.113-.227.166-.338.028-.058.064-.115.093-.165l.1-.166c.064-.107.129-.215.2-.316l.23-.3a2.289,2.289,0,0,1,.237-.287,5.184,5.184,0,0,1,.525-.539,6.8,6.8,0,0,1,2.588-1.482c.238-.057.482-.129.727-.172.125-.019.247-.036.366-.05l.187-.021c.065-.007.122-.007.187-.015l.374-.014h.273l.446.007c1.172.029,2.351.064,3.523.094s2.351.072,3.523.115l.885.029.439.021.223.007h.136a1.663,1.663,0,0,0,.7-.1l.022-.007.021-.014.036-.021a.639.639,0,0,0,.086-.036.468.468,0,0,1,.079-.05.29.29,0,0,0,.079-.051.744.744,0,0,0,.151-.115.893.893,0,0,0,.072-.064.575.575,0,0,0,.064-.065,1.647,1.647,0,0,0,.4-.676.675.675,0,0,1,.021-.1l.022-.043a.165.165,0,0,1,.007-.058c.005-.034.01-.067.015-.1l.007-.029c0-.007,0-.007.007-.029v-.115l.051-.877.093-1.761q.2-3.527.46-7.053.13-1.769.273-3.53l.022-.223v-.05a.4.4,0,0,1,.007-.051v-.079l.014-.158v-.166c0-.052-.007-.1-.007-.158l-.021-.165a1.217,1.217,0,0,0-.022-.158l-.043-.165-.015-.079c-.007-.029-.021-.051-.029-.079l-.05-.158a.773.773,0,0,0-.072-.158l-.064-.151-.086-.151a1,1,0,0,0-.094-.144l-.1-.144a.412.412,0,0,0-.051-.072l-.057-.065a3.333,3.333,0,0,0-1.135-.87,1.753,1.753,0,0,0-.173-.072,1.2,1.2,0,0,0-.18-.064l-.179-.051a1.563,1.563,0,0,0-.187-.043l-.187-.036-.1-.014-.108-.015-.439-.05c-1.179-.129-2.351-.259-3.53-.424,1.172-.18,2.351-.317,3.523-.46l.439-.058.115-.007.122-.007.252-.014c.079-.007.165,0,.251,0l.252.014c.086.007.165.022.251.036s.173.029.252.043a4.637,4.637,0,0,1,1.884.892l.107.079c.029.029.065.057.094.086l.2.187a2.338,2.338,0,0,1,.18.194l.179.209.166.216a1.73,1.73,0,0,1,.151.23l.144.238c.021.036.043.079.064.115l.058.129.115.252a1.893,1.893,0,0,1,.093.259q.051.137.094.266l.065.274.029.136.015.072.007.064.036.28.022.144.007.115.022.223q.165,1.761.309,3.523.291,3.516.525,7.046l.115,1.762.05.884.007.107v.5c-.007.058,0,.115-.007.165l-.021.173c-.01.11-.022.223-.036.338a6.187,6.187,0,0,1-3.034,4.393,6.255,6.255,0,0,1-2.682.8l-.172.014h-.072l-.058.008-.223.007-.439.021-.877.043c-1.179.05-2.351.1-3.53.144s-2.344.087-3.523.123l-.438.015h-.108l-.029.007h-.029l-.065.015h-.036a.272.272,0,0,1-.036.014l-.065.015h-.015l-.014.007-.029.015-.065.014a1.263,1.263,0,0,0-.424.3c-.036.028-.051.072-.086.1a.177.177,0,0,0-.028.05.372.372,0,0,0-.036.057.154.154,0,0,0-.029.058.078.078,0,0,1-.014.022c-.007.014-.014.021-.014.029-.01.024-.017.043-.022.057s-.009.019-.014.029a.067.067,0,0,0-.007.029.788.788,0,0,0-.029.122l-.014.058v.065c0,.021-.014.036-.007.058v.064a3.1,3.1,0,0,0,.007.338l.057,3.523.043,3.523.007.885.007.438v.338l-.007.187a6.865,6.865,0,0,1-.748,2.963,6.724,6.724,0,0,1-1.956,2.329,6.9,6.9,0,0,1-2.782,1.266l-.381.057a3.384,3.384,0,0,1-.381.043c-.125.01-.252.017-.381.022l-.187.007h-1l-1.761-.007c-2.351-.022-4.7-.043-7.053-.086l-1.761-.029-1.819-.043a6.266,6.266,0,0,1-1.467-.216,6.175,6.175,0,0,1-1.366-.532,6.634,6.634,0,0,1-2.214-1.876l-.215-.3c-.065-.1-.13-.216-.2-.324s-.122-.23-.18-.345-.108-.23-.158-.345a6.714,6.714,0,0,1-.4-1.366,9.668,9.668,0,0,1-.123-1.187l-.007-.136v-.129c-.007-.086-.007-.166-.007-.245v-.468l.029-1.8.036-1.754c.021-1.179.058-2.379.129-3.6.036-.6.086-1.222.144-1.841.036-.3.064-.611.108-.92l.057-.46c.021-.158.051-.309.072-.46.094-.619.208-1.23.331-1.834.065-.3.136-.6.2-.906.036-.151.079-.309.115-.46l.065-.229.065-.23a18.434,18.434,0,0,1,.618-1.833,14.674,14.674,0,0,1,.849-1.761A13.091,13.091,0,0,1,244.49,277l.151-.187c.052-.067.105-.132.158-.194l.316-.366c.108-.123.216-.238.331-.353.05-.057.108-.115.165-.173l.173-.165c.115-.115.23-.23.352-.331l.359-.317c.123-.1.245-.2.374-.294s.244-.2.374-.288a16.93,16.93,0,0,1,1.553-1.021c.532-.31,1.072-.59,1.625-.848s1.108-.482,1.676-.69A23.6,23.6,0,0,1,255.548,270.82Z" transform="translate(-240.6 -262.455)" fill="#4a89dc"/>
        </g>
        <g id="_Group_4" data-name="&lt;Group&gt;" transform="translate(16.145 12.598)">
          <path id="_Path_3" data-name="&lt;Path&gt;" d="M226.16,197.815q-.108-.287-.2-.575c-.058-.2-.108-.4-.166-.6a2.951,2.951,0,0,1-.072-.295c-.029-.1-.053-.2-.072-.3l-.065-.309-.058-.3a13.334,13.334,0,0,1-.18-2.524,11.369,11.369,0,0,1,.115-1.3c.028-.223.079-.438.122-.654.022-.115.051-.223.08-.331s.05-.216.086-.323a9.494,9.494,0,0,1,1.15-2.524l.2-.287c.072-.1.137-.194.208-.287.151-.187.295-.374.46-.547l.245-.266c.079-.086.165-.165.251-.252s.173-.165.259-.245l.273-.23a11.635,11.635,0,0,1,2.38-1.524c.108-.05.216-.108.316-.151l.323-.137.317-.137c.108-.043.215-.079.316-.122.216-.072.424-.158.64-.223l.323-.108c.1-.036.216-.065.323-.093l.331-.094L234.4,183q.324-.086.647-.151c.438-.093.863-.173,1.287-.237,1.7-.273,3.3-.4,4.753-.618.179-.021.359-.05.532-.086l.51-.094c.079-.022.165-.029.251-.05l.245-.065c.165-.036.338-.072.5-.122.324-.094.654-.18.985-.295l.245-.079.122-.036.122-.05.482-.18a27.51,27.51,0,0,0,7.284-4.436l.036-.029a2.919,2.919,0,0,1,4.738,1.92l.022.187.014.165.036.316c.02.211.036.42.051.625.029.417.05.827.065,1.237q.054,1.229.021,2.459c-.014.82-.058,1.646-.137,2.466q-.05.618-.129,1.237c-.05.417-.115.827-.18,1.237a25.235,25.235,0,0,1-1.316,4.94,18.174,18.174,0,0,1-1.129,2.4,14.79,14.79,0,0,1-1.575,2.25,12.919,12.919,0,0,1-.97,1.007c-.18.158-.353.316-.54.467-.093.072-.18.151-.281.216l-.288.215-.072.05-.079.05-.158.108c-.108.072-.216.144-.31.194l-.575.316c-.194.108-.388.194-.575.288s-.381.187-.575.266a21.78,21.78,0,0,1-4.738,1.481,20.457,20.457,0,0,1-4.853.323,16.922,16.922,0,0,1-4.666-.884,27.853,27.853,0,0,0,4.522-.719,25.855,25.855,0,0,0,4.163-1.438,24.476,24.476,0,0,0,3.731-2.1c.144-.1.281-.209.424-.309s.288-.2.41-.309l.388-.3c.072-.057.108-.1.158-.144l.065-.072.036-.036.043-.036c.2-.215.4-.438.582-.668a7.569,7.569,0,0,0,.517-.741,12.84,12.84,0,0,0,1.467-3.516,24.082,24.082,0,0,0,.7-4.034c.036-.345.065-.7.086-1.05s.043-.7.051-1.057.021-.7.029-1.064,0-.709,0-1.064c-.015-.719-.036-1.431-.079-2.143q-.036-.539-.079-1.064l-.043-.525-.029-.251-.029-.216,4.774,1.884a31.766,31.766,0,0,1-4.271,3c-.381.23-.776.432-1.165.64-.2.1-.4.2-.6.295l-.3.151-.3.136-.618.273-.625.245c-.108.043-.209.086-.316.122l-.323.115c-.209.072-.425.151-.64.216l-.654.194-.158.05-.165.043-.331.079c-.223.058-.446.122-.669.158l-.669.137c-.223.043-.453.072-.676.108l-.338.05c-.115.015-.23.022-.345.036l-.683.065c-.216.021-.439.029-.654.043-1.726.086-3.322.022-4.8.057-.187.007-.375.007-.554.015s-.36.014-.539.028-.352.022-.525.036l-.266.021-.252.036c-.172.014-.345.043-.517.072s-.345.057-.518.086c-.086.015-.18.029-.259.05l-.244.058-.251.05c-.08.021-.158.05-.245.072a7.949,7.949,0,0,0-3.437,1.841l-.173.172a2.194,2.194,0,0,0-.18.18c-.107.13-.222.252-.331.388l-.158.2-.151.208-.072.108c-.024.034-.048.07-.072.108l-.144.223a10.218,10.218,0,0,0-.906,1.984A18.437,18.437,0,0,0,226.16,197.815Z" transform="translate(-225.343 -175.815)" fill="#46c8b0"/>
        </g>
      </g>
    </g>
  </g>
</svg>
